<svg xmlns="http://www.w3.org/2000/svg" width="400" height="400" viewBox="30 30 340 340">
<g>
<path d="M 229.50 325.13 C220.38,327.01 190.68,328.65 186.00,327.54 C185.18,327.34 181.12,326.65 177.00,326.01 C149.88,321.79 126.21,310.94 104.25,292.65 C78.55,271.27 61.45,242.21 53.83,207.00 C50.52,191.68 50.52,165.00 53.85,150.00 C57.06,135.49 60.22,126.35 66.47,113.50 C74.49,97.01 81.04,87.91 94.97,73.93 C117.80,51.01 141.53,38.45 173.38,32.43 C227.36,22.24 282.20,42.59 316.40,85.50 C325.55,96.98 328.72,102.05 334.87,115.00 C344.85,136.04 349.00,154.70 348.98,178.50 C348.95,210.77 340.84,237.16 322.84,263.63 C313.13,277.90 302.08,289.10 287.00,299.95 C268.48,313.27 251.93,320.52 229.50,325.13 ZM 182.00 286.52 C198.15,289.11 219.54,287.70 233.50,283.12 C267.04,272.14 293.78,245.12 304.41,211.47 C307.72,201.00 308.96,192.00 308.96,178.50 C308.96,159.19 305.92,145.92 297.76,129.58 C284.96,103.94 261.77,83.85 235.00,75.19 C214.31,68.50 187.74,68.29 167.50,74.67 C139.58,83.46 115.76,103.66 102.64,129.69 C85.42,163.86 87.83,206.48 108.78,238.50 C114.30,246.92 131.33,264.19 139.13,269.28 C152.78,278.17 167.94,284.27 182.00,286.52 ZM 188.14 260.25 C185.47,265.64 184.69,265.80 175.20,262.84 C171.98,261.84 171.92,261.71 172.55,257.48 C173.42,251.73 171.67,246.79 167.46,243.10 C161.37,237.75 151.63,238.06 146.35,243.76 L 143.93 246.36 L 133.02 235.59 L 135.39 233.04 C141.92,226.03 140.56,213.82 132.70,208.91 C130.19,207.34 128.11,206.98 123.03,207.21 L 116.56 207.50 L 114.83 203.00 C112.51,196.94 112.48,193.00 114.75,193.00 C120.05,192.98 126.99,185.18 127.00,179.22 C127.00,171.89 123.10,166.92 115.79,164.95 C113.63,164.36 112.25,163.44 112.47,162.72 C112.69,162.05 113.59,158.90 114.47,155.72 L 116.07 149.94 L 120.98 150.59 C123.68,150.95 127.03,150.96 128.43,150.61 C132.61,149.56 137.87,144.21 139.06,139.79 C140.47,134.54 138.75,127.05 135.40,123.91 L 132.96 121.61 L 137.69 116.81 C140.29,114.16 142.83,112.00 143.32,112.00 C143.81,112.00 145.53,113.11 147.15,114.47 C151.66,118.26 156.85,119.32 162.03,117.49 C167.48,115.57 168.68,114.54 171.16,109.69 C172.59,106.88 173.07,104.30 172.83,100.70 L 172.50 95.64 L 177.50 94.34 C184.73,92.46 187.00,92.61 187.00,94.97 C187.00,97.40 192.33,103.60 196.10,105.55 C197.64,106.35 200.69,107.00 202.87,107.00 C207.97,107.00 215.07,101.89 216.46,97.22 C217.53,93.59 219.14,93.25 226.47,95.10 L 230.84 96.20 L 230.37 101.35 C229.78,107.85 232.75,113.44 238.52,116.71 C244.67,120.20 251.43,119.32 257.17,114.30 C258.67,112.99 259.37,113.35 264.05,117.86 L 269.27 122.89 L 266.67 125.98 C257.71,136.62 266.84,153.53 280.53,151.65 L 284.77 151.07 L 286.39 157.49 C287.27,161.02 288.00,164.15 288.00,164.44 C288.00,164.72 286.24,165.86 284.09,166.95 C276.46,170.85 273.65,177.17 276.69,183.62 C278.23,186.87 282.94,190.70 287.29,192.25 C288.11,192.54 285.62,204.72 284.52,205.81 C284.19,206.15 282.21,206.30 280.14,206.15 C271.79,205.54 264.67,210.96 263.40,218.88 C262.58,224.06 263.38,227.11 266.57,230.90 L 269.13 233.95 L 264.43 238.97 C261.84,241.74 259.36,244.00 258.91,244.00 C258.46,244.00 256.43,242.88 254.40,241.50 C243.60,234.17 229.20,243.16 230.17,256.63 C230.49,261.16 230.40,261.33 227.00,262.57 C221.80,264.47 217.00,264.37 217.00,262.37 C217.00,259.45 213.05,254.25 209.58,252.61 C201.18,248.62 192.35,251.77 188.14,260.25 ZM 202.00 205.78 L 202.00 236.15 L 205.59 231.45 C207.56,228.87 210.37,225.66 211.84,224.31 C214.20,222.14 223.51,217.23 228.25,215.65 C229.84,215.12 230.00,213.20 230.00,194.53 L 230.00 174.00 L 236.00 174.00 L 236.00 218.96 L 233.25 219.56 C224.30,221.53 215.29,225.81 211.64,229.84 C210.30,231.33 211.96,230.79 217.64,227.89 C222.37,225.48 228.19,223.43 232.25,222.74 L 239.00 221.59 L 239.00 182.00 L 245.00 182.00 L 245.00 224.72 L 239.66 225.35 C231.86,226.27 217.00,231.27 217.00,232.98 C217.00,233.35 220.13,232.60 223.95,231.32 C228.39,229.83 233.91,228.87 239.20,228.67 L 247.50 228.35 L 248.03 178.12 L 243.77 178.31 C239.52,178.50 239.50,178.48 239.19,174.75 C238.88,171.03 238.85,171.00 234.44,171.00 C230.17,171.00 230.00,170.88 230.00,168.00 C230.00,165.67 229.56,165.00 228.00,165.00 C226.90,165.00 226.00,164.65 226.00,164.22 C226.00,163.14 228.83,159.01 231.76,155.84 L 234.21 153.17 L 228.25 153.71 C215.82,154.84 210.36,150.16 204.99,133.78 C201.48,123.05 197.74,114.57 196.05,113.53 C195.51,113.19 195.71,114.76 196.50,117.01 C200.62,128.68 205.57,171.83 203.07,174.33 C202.36,175.04 202.00,185.45 202.00,205.78 ZM 193.46 229.68 C195.68,232.52 197.84,234.88 198.25,234.93 C199.42,235.04 199.16,177.17 197.99,174.97 C197.43,173.93 194.95,171.69 192.49,169.99 L 188.00 166.90 L 188.05 155.70 C188.08,149.54 188.70,140.90 189.43,136.50 C190.16,132.10 190.63,128.35 190.46,128.16 C189.84,127.47 188.16,131.77 186.10,139.32 C181.80,155.08 178.59,158.43 167.75,158.47 C164.04,158.49 161.00,158.62 161.00,158.77 C161.00,158.92 162.57,161.34 164.50,164.14 C166.43,166.93 168.00,169.62 168.00,170.11 C168.00,170.60 166.43,171.00 164.50,171.00 C161.07,171.00 161.00,171.09 161.00,175.07 L 161.00 179.13 L 156.75 178.82 L 152.50 178.50 L 152.21 200.50 C152.05,212.60 152.16,223.85 152.46,225.51 L 153.00 228.52 L 161.25 228.71 C166.36,228.82 172.11,229.70 176.35,231.02 C180.11,232.18 183.39,232.94 183.63,232.71 C185.03,231.30 164.81,225.05 158.75,225.01 L 156.00 225.00 L 156.00 182.00 L 160.96 182.00 L 161.23 201.69 L 161.50 221.38 L 168.29 222.64 C175.33,223.93 185.13,227.90 188.23,230.71 C189.21,231.59 190.28,232.06 190.60,231.74 C192.31,230.02 174.21,220.00 169.40,220.00 C168.56,220.00 167.02,219.55 165.99,219.00 C164.22,218.05 164.14,216.77 164.62,196.25 L 165.12 174.50 L 167.54 174.19 L 169.96 173.87 L 170.23 194.58 L 170.50 215.29 L 175.13 216.64 C181.60,218.53 188.71,223.58 193.46,229.68 ZM 204.76 56.43 C208.67,58.55 210.75,58.34 213.55,55.55 C216.42,52.67 216.82,47.61 214.44,44.22 C212.55,41.52 206.01,41.13 203.57,43.57 C199.81,47.33 200.44,54.09 204.76,56.43 ZM 95.92 104.08 C99.74,107.90 104.06,108.01 106.93,104.37 C109.26,101.40 109.51,99.20 107.89,95.66 C106.77,93.21 103.21,91.00 100.38,91.00 C98.10,91.00 93.00,96.53 93.00,99.00 C93.00,100.18 94.32,102.47 95.92,104.08 ZM 321.00 165.82 L 321.00 168.06 L 323.99 165.85 C326.63,163.90 327.25,163.80 329.45,164.97 C331.52,166.08 332.20,166.08 333.57,164.94 C334.89,163.85 335.09,162.42 334.63,157.65 C334.02,151.47 333.37,149.85 332.20,151.58 C331.14,153.13 323.17,155.19 320.96,154.49 C318.92,153.84 318.41,155.30 319.59,158.36 C320.04,159.55 320.73,159.67 322.72,158.91 C326.41,157.51 326.95,158.82 323.75,161.38 C322.22,162.60 321.00,164.57 321.00,165.82 ZM 79.45 159.14 C81.19,160.72 82.00,160.03 82.00,156.94 C82.00,155.26 81.59,154.13 81.09,154.44 C79.96,155.14 77.00,154.08 77.00,152.97 C77.00,152.53 78.38,151.86 80.07,151.49 C81.89,151.08 83.46,149.94 83.95,148.66 C85.05,145.75 84.78,145.65 80.61,147.39 C78.62,148.22 77.00,148.50 77.00,148.02 C77.00,146.65 74.01,144.00 72.45,144.00 C71.68,144.00 70.40,145.01 69.62,146.25 C67.79,149.13 66.35,157.52 67.84,156.60 C69.04,155.86 78.00,157.82 79.45,159.14 ZM 68.68 218.35 C69.06,218.72 69.62,218.63 69.93,218.14 C70.51,217.22 80.49,215.45 82.73,215.86 C83.43,215.98 83.76,215.41 83.48,214.54 C82.47,211.32 82.13,210.22 81.68,210.17 C81.45,210.15 81.19,210.41 80.79,210.81 L 80.77 210.83 C80.13,211.47 78.80,212.00 77.83,212.00 C75.34,212.00 76.64,209.09 79.64,207.95 C82.14,207.00 82.57,205.46 81.03,203.01 C80.25,201.77 79.39,202.19 76.12,205.38 L 72.16 209.25 L 69.08 207.06 C66.08,204.92 65.40,205.27 66.58,208.36 C66.90,209.19 67.69,209.69 68.33,209.45 C68.97,209.22 70.59,209.87 71.92,210.90 L 74.34 212.77 L 71.17 213.46 C68.15,214.13 66.91,216.57 68.68,218.35 ZM 268.80 72.78 C269.17,80.57 270.52,80.78 275.04,73.75 C276.89,70.86 278.77,68.35 279.21,68.16 C280.11,67.79 279.26,66.00 278.19,66.00 C277.80,66.00 276.89,67.35 276.16,69.00 C274.24,73.33 273.00,72.69 273.00,67.36 C273.00,64.11 272.47,62.32 271.25,61.39 C269.01,59.69 267.93,59.65 268.56,61.29 C269.13,62.79 263.31,72.00 261.78,72.00 C261.18,72.00 261.26,72.61 262.00,73.50 C263.53,75.34 264.67,75.43 264.67,73.72 C264.67,73.01 265.53,71.12 266.58,69.50 L 268.50 66.56 ZM 327.08 198.59 C330.61,199.21 333.84,199.78 334.25,199.86 C334.66,199.94 335.00,199.19 335.00,198.20 C335.00,196.73 334.35,196.48 331.50,196.81 C326.79,197.36 327.07,195.67 332.00,193.73 C335.08,192.52 336.00,191.62 336.00,189.83 C335.99,187.70 335.51,187.47 330.32,187.19 C327.20,187.02 323.83,186.44 322.83,185.91 C321.33,185.11 321.00,185.31 321.00,187.02 C321.00,188.18 321.34,188.92 321.75,188.69 C322.16,188.45 324.52,188.57 327.00,188.96 L 331.50 189.67 L 325.70 192.43 C322.51,193.95 320.07,195.70 320.28,196.33 C320.48,196.95 323.54,197.97 327.08,198.59 ZM 69.85 288.48 C69.66,288.67 67.13,289.25 64.23,289.78 C58.79,290.77 56.92,290.01 58.91,287.61 C60.19,286.06 59.35,285.00 56.83,285.00 C54.24,285.00 54.55,284.09 58.86,279.10 L 62.66 274.70 L 65.34 279.49 C67.85,283.98 67.90,284.35 66.26,285.55 C65.29,286.26 64.83,287.16 65.23,287.56 C65.63,287.96 66.60,287.75 67.39,287.09 C68.43,286.23 69.01,286.21 69.51,287.02 C69.89,287.63 70.04,288.29 69.85,288.48 ZM 207.00 313.00 C209.64,315.64 211.57,315.52 214.55,312.55 C217.52,309.57 217.68,306.68 215.00,304.00 C212.60,301.60 210.21,301.46 207.22,303.56 C204.39,305.54 204.28,310.28 207.00,313.00 ZM 222.23 312.44 C221.29,313.38 224.51,313.07 227.86,311.90 C231.28,310.71 232.64,307.69 231.61,303.57 C230.88,300.66 228.30,299.67 223.69,300.53 L 220.30 301.17 L 221.55 306.52 C222.23,309.47 222.54,312.13 222.23,312.44 ZM 303.01 112.75 C303.00,113.99 303.26,115.00 303.58,115.00 C303.90,115.00 306.53,113.43 309.43,111.50 C312.33,109.57 315.28,108.00 315.98,108.00 C316.97,108.00 316.96,107.66 315.91,106.39 C315.05,105.36 314.44,105.18 314.20,105.91 C313.99,106.53 312.49,107.73 310.86,108.57 L 307.91 110.10 L 309.95 106.09 C312.36,101.38 312.50,99.66 310.63,98.10 C309.55,97.21 308.58,97.59 306.18,99.83 C304.50,101.40 301.77,103.35 300.12,104.14 C297.90,105.22 297.36,105.97 298.03,107.04 C298.80,108.29 299.10,108.28 300.21,106.93 C300.92,106.06 302.74,104.59 304.25,103.66 C307.62,101.57 307.92,103.10 305.00,107.50 C303.91,109.15 303.01,111.51 303.01,112.75 ZM 250.00 67.32 C254.29,69.22 255.85,69.49 257.27,68.61 C258.83,67.65 258.57,67.43 255.30,67.00 C251.39,66.48 250.21,64.74 251.94,62.04 C252.74,60.79 253.17,60.85 254.94,62.44 C256.07,63.47 257.00,64.05 257.00,63.74 C257.00,63.42 257.28,62.43 257.62,61.54 C257.97,60.65 257.85,59.99 257.37,60.08 C255.23,60.47 254.00,59.88 254.00,58.47 C254.00,55.80 257.16,55.47 259.16,57.94 C260.17,59.20 261.00,59.98 261.00,59.69 C261.00,59.40 261.27,58.46 261.60,57.59 C262.05,56.43 260.98,55.49 257.52,54.01 C252.97,52.06 250.06,51.40 251.25,52.58 C252.04,53.37 247.47,63.09 245.83,64.10 C244.95,64.65 246.28,65.68 250.00,67.32 ZM 312.16 131.10 C312.74,131.46 314.09,131.53 315.16,131.25 C316.88,130.80 316.75,130.52 314.05,128.88 C310.73,126.86 310.09,124.56 312.58,123.61 C315.32,122.56 316.00,122.93 316.00,125.48 C316.00,127.74 316.21,127.86 318.44,126.84 L 320.89 125.73 L 318.69 123.95 C316.28,122.00 316.41,121.58 319.75,120.56 C321.79,119.93 322.00,120.19 322.00,123.43 C322.00,125.39 322.42,127.00 322.94,127.00 C325.09,127.00 325.11,124.51 323.00,120.00 L 320.76 115.21 L 317.30 117.25 C315.40,118.37 312.34,119.81 310.49,120.44 L 307.14 121.59 L 309.12 126.02 C310.21,128.45 311.58,130.74 312.16,131.10 ZM 280.22 271.99 L 288.50 280.54 L 291.25 278.08 C294.50,275.18 294.78,271.78 292.00,269.00 C289.33,266.33 286.77,266.48 283.19,269.49 ZM 318.77 148.31 C322.85,149.38 322.94,149.03 319.50,145.59 C316.43,142.52 316.36,141.40 319.17,140.66 C322.07,139.91 323.29,140.79 322.66,143.19 C322.28,144.64 322.54,145.01 323.65,144.58 C324.48,144.26 325.65,144.00 326.24,144.00 C326.83,144.00 326.49,143.10 325.49,141.99 C323.46,139.74 323.53,139.55 326.90,138.51 C329.21,137.80 329.27,137.92 328.74,141.87 C328.23,145.71 328.32,145.90 330.17,144.91 C331.47,144.21 331.93,143.27 331.51,142.17 C331.15,141.25 330.60,139.22 330.29,137.66 C329.54,133.97 328.08,133.52 323.37,135.50 C321.24,136.40 318.24,137.17 316.70,137.22 C314.86,137.28 314.07,137.74 314.40,138.59 C314.67,139.30 315.37,141.67 315.96,143.87 C316.59,146.19 317.77,148.05 318.77,148.31 ZM 174.65 58.23 C174.28,59.66 174.79,59.98 177.34,59.90 C182.51,59.74 185.24,58.60 186.11,56.23 C187.13,53.46 186.54,53.43 183.19,56.06 C180.71,58.02 180.50,58.03 179.28,56.37 C177.16,53.47 177.68,51.71 180.50,52.24 C182.37,52.60 183.00,52.30 183.00,51.03 C183.00,48.46 181.84,47.83 180.50,49.67 C179.03,51.69 177.00,50.61 177.00,47.81 C177.00,45.97 177.45,45.80 180.94,46.27 C184.47,46.74 184.78,46.62 183.82,45.09 C182.90,43.61 182.03,43.52 177.34,44.37 C172.99,45.15 172.05,45.66 172.58,46.92 C173.93,50.19 175.10,56.52 174.65,58.23 ZM 158.21 63.95 C161.38,65.23 161.49,65.22 165.37,63.25 C168.42,61.70 168.76,61.15 168.27,58.50 C167.54,54.55 167.43,54.48 164.44,55.85 C162.08,56.92 162.00,57.15 163.48,58.62 C165.36,60.51 165.02,62.37 162.69,62.82 C160.55,63.23 156.87,57.29 157.23,54.00 C157.46,51.84 158.00,51.50 161.15,51.50 C164.26,51.50 164.67,51.25 163.90,49.82 C163.19,48.49 162.38,48.32 160.03,48.99 C155.88,50.18 155.01,50.85 153.94,53.64 C152.71,56.89 155.12,62.71 158.21,63.95 ZM 140.38 73.19 C139.57,74.51 140.78,74.14 146.03,71.48 C149.47,69.74 151.00,68.36 151.00,66.98 C151.00,64.34 150.37,64.48 147.45,67.75 C145.05,70.43 144.96,70.45 143.50,68.56 C141.52,65.99 141.61,65.26 144.00,64.50 C145.10,64.15 146.00,63.22 146.00,62.43 C146.00,60.50 145.00,60.63 143.42,62.75 C142.21,64.38 142.01,64.39 140.44,62.85 C138.37,60.80 139.33,59.00 142.50,59.00 C145.19,59.00 146.61,57.49 144.91,56.45 C143.67,55.68 134.00,59.86 134.00,61.17 C134.00,61.63 134.43,62.00 134.96,62.00 C136.17,62.00 141.06,72.09 140.38,73.19 ZM 320.08 217.60 C321.28,219.05 321.47,219.02 322.13,217.35 C323.51,213.84 323.09,212.34 320.75,212.42 C319.14,212.48 318.50,211.93 318.50,210.50 C318.50,207.86 322.81,207.33 326.93,209.47 C330.48,211.30 330.94,214.23 328.01,216.28 C326.06,217.65 326.26,219.01 328.42,218.99 C329.77,218.98 332.00,214.31 332.00,211.49 C332.00,205.69 322.39,202.61 318.00,207.00 C315.64,209.36 315.18,216.00 317.38,216.00 C318.14,216.00 319.35,216.72 320.08,217.60 ZM 284.34 90.77 C285.11,91.40 286.38,91.02 288.13,89.61 C290.52,87.69 290.62,87.35 289.22,85.75 C287.22,83.46 286.35,83.54 285.69,86.09 C285.34,87.43 284.50,88.05 283.33,87.83 C280.29,87.24 280.70,84.30 284.38,80.30 C287.32,77.12 288.19,76.68 289.70,77.61 C290.69,78.22 291.73,79.92 292.00,81.39 C292.46,83.88 292.58,83.93 293.67,82.18 C294.63,80.62 294.41,79.85 292.38,77.65 C288.84,73.84 284.01,74.01 280.59,78.08 C276.57,82.85 277.18,84.92 284.34,90.77 ZM 275.29 343.00 C274.31,343.90 272.36,345.12 270.96,345.70 C268.57,346.70 268.32,346.50 266.46,342.16 C265.38,339.64 264.37,337.27 264.21,336.91 C263.79,335.96 271.95,332.85 273.07,333.54 C273.58,333.86 274.00,334.99 274.00,336.06 C274.00,337.13 274.40,338.00 274.89,338.00 C276.77,338.00 277.04,341.40 275.29,343.00 ZM 103.00 328.62 C103.00,329.94 102.40,331.00 101.67,331.00 C99.81,331.00 99.00,330.00 99.00,327.71 C99.00,326.09 98.75,325.97 97.50,327.00 C96.30,327.99 95.69,327.99 94.45,326.96 C93.60,326.25 93.29,325.41 93.76,325.09 C94.22,324.76 95.63,322.81 96.88,320.75 C98.14,318.69 99.37,317.00 99.62,317.00 C100.42,317.00 105.48,320.42 106.23,321.48 C107.57,323.33 107.03,325.18 105.00,325.71 C103.71,326.05 103.00,327.07 103.00,328.62 ZM 218.36 356.50 C218.78,357.58 218.25,358.00 216.47,358.00 C214.40,358.00 214.00,357.52 214.00,355.07 C214.00,353.45 213.58,351.02 213.06,349.66 C212.17,347.32 212.33,347.18 216.31,346.75 C218.62,346.51 221.29,346.71 222.25,347.19 C224.42,348.28 224.53,350.86 222.45,351.66 C221.11,352.17 221.19,352.58 223.00,354.50 C224.97,356.59 224.99,356.79 223.33,357.43 C222.23,357.85 221.12,357.52 220.42,356.55 C218.97,354.57 217.61,354.53 218.36,356.50 ZM 66.20 185.43 C68.08,186.74 68.71,186.77 70.45,185.62 C71.58,184.88 72.64,183.34 72.81,182.21 C73.20,179.63 75.54,177.60 77.05,178.53 C78.17,179.22 77.97,181.81 76.52,185.26 C75.96,186.58 76.15,186.88 77.29,186.44 C79.23,185.70 80.39,179.60 79.07,177.13 C76.69,172.68 71.91,173.88 69.55,179.54 C68.01,183.22 66.32,183.99 65.34,181.45 C65.00,180.56 65.72,178.86 67.05,177.45 C69.30,175.06 68.76,174.39 65.58,175.61 C63.04,176.58 63.48,183.52 66.20,185.43 ZM 79.78 303.26 C78.53,304.10 76.53,305.71 75.35,306.84 C73.33,308.77 73.12,308.79 71.64,307.16 C70.22,305.58 70.25,305.32 72.04,304.21 C73.12,303.53 74.00,302.54 74.00,301.99 C74.00,300.50 71.34,300.80 69.67,302.47 C68.37,303.77 67.99,303.64 66.49,301.35 C65.56,299.92 65.30,299.07 65.92,299.45 C66.55,299.84 68.65,298.55 70.68,296.52 C73.96,293.24 74.47,293.04 75.86,294.43 C77.26,295.83 77.22,296.12 75.45,297.42 C73.84,298.62 73.73,299.09 74.82,300.18 C75.91,301.27 76.36,301.20 77.42,299.76 C78.64,298.11 78.80,298.12 80.39,299.87 C81.97,301.62 81.93,301.82 79.78,303.26 ZM 222.71 59.30 C226.59,60.31 226.89,60.08 226.31,56.50 C225.81,53.42 225.99,53.00 227.87,53.00 C229.04,53.00 230.00,53.48 230.00,54.06 C230.00,54.64 230.45,54.84 231.00,54.50 C231.55,54.16 232.00,53.07 232.00,52.08 C232.00,50.70 231.42,50.39 229.50,50.76 C227.65,51.11 227.00,50.80 227.00,49.59 C227.00,47.37 229.83,46.41 232.12,47.84 C234.52,49.34 235.00,49.30 235.00,47.62 C235.00,46.82 233.13,45.77 230.56,45.12 C224.64,43.63 222.95,43.70 223.60,45.40 C224.06,46.59 223.33,50.48 221.40,57.17 C221.10,58.20 221.60,59.01 222.71,59.30 ZM 110.53 279.05 C111.64,280.85 113.00,280.00 113.00,277.50 C113.00,275.53 113.51,275.00 115.39,275.00 C118.97,275.00 119.42,272.24 116.47,268.37 C115.05,266.52 113.76,265.00 113.58,265.00 C113.41,265.00 111.28,266.98 108.86,269.40 C104.98,273.28 104.66,273.93 106.14,274.86 C107.40,275.65 107.96,275.55 108.38,274.45 C109.37,271.86 111.27,272.81 110.58,275.55 C110.23,276.95 110.20,278.52 110.53,279.05 ZM 150.26 304.78 C153.08,306.14 154.28,306.26 153.57,305.11 C152.88,304.00 155.82,296.76 157.33,295.80 C158.04,295.36 157.76,294.85 156.54,294.38 C155.19,293.86 154.24,294.26 153.24,295.76 C151.75,298.01 149.00,297.75 149.00,295.36 C149.00,294.58 149.71,293.66 150.58,293.33 C151.86,292.84 151.91,292.56 150.83,291.88 C148.31,290.27 147.27,291.01 145.39,295.75 C144.35,298.36 143.37,300.77 143.21,301.12 C143.05,301.47 143.62,302.03 144.49,302.36 C145.56,302.77 146.37,302.16 147.01,300.48 C148.09,297.63 149.77,297.25 150.69,299.64 C151.07,300.62 150.65,301.78 149.67,302.50 C148.18,303.59 148.23,303.81 150.26,304.78 ZM 169.32 152.96 C172.21,154.09 175.41,152.02 175.80,148.76 C176.46,143.39 169.43,140.89 166.45,145.43 C164.55,148.33 165.80,151.59 169.32,152.96 ZM 218.65 144.17 C220.69,146.42 224.32,146.54 226.43,144.43 C228.45,142.40 228.42,140.13 226.35,137.83 C224.29,135.55 221.23,135.48 218.83,137.65 C216.56,139.71 216.50,141.79 218.65,144.17 ZM 110.40 88.27 L 115.50 93.50 L 118.75 91.13 C121.97,88.78 123.14,84.82 121.00,83.50 C120.44,83.15 120.00,83.95 120.00,85.32 C120.00,86.66 119.37,88.28 118.60,88.92 C117.47,89.85 116.45,89.14 113.38,85.29 C111.29,82.66 109.44,80.32 109.29,80.09 C109.14,79.86 108.18,80.43 107.16,81.35 C105.38,82.97 105.50,83.23 110.40,88.27 ZM 181.66 313.34 C182.12,313.80 183.00,311.94 183.62,309.21 C184.23,306.48 185.04,303.74 185.42,303.12 C185.82,302.48 185.46,302.00 184.56,302.00 C183.67,302.00 183.00,302.86 183.00,304.00 C183.00,305.10 182.55,306.00 182.00,306.00 C181.45,306.00 181.00,305.36 181.00,304.57 C181.00,302.84 178.31,300.00 176.68,300.00 C176.03,300.00 175.48,301.01 175.45,302.25 C175.43,303.49 175.07,306.19 174.66,308.25 C174.08,311.16 174.22,312.00 175.32,312.00 C176.26,312.00 176.57,311.21 176.27,309.62 C175.53,305.78 177.88,305.46 179.43,309.18 C180.20,311.01 181.20,312.88 181.66,313.34 ZM 89.00 319.00 C89.00,320.80 85.57,319.96 82.29,317.36 L 79.08 314.80 L 82.13 312.23 C83.81,310.82 85.52,308.77 85.92,307.69 C86.61,305.82 86.83,305.87 89.99,308.70 C92.53,310.97 93.15,312.15 92.57,313.59 C91.84,315.39 91.75,315.37 90.93,313.25 C90.03,310.91 88.53,310.33 87.54,311.94 C87.22,312.45 87.70,313.29 88.61,313.80 C89.85,314.49 89.95,314.91 89.02,315.49 C88.31,315.93 87.41,315.67 86.93,314.89 C86.29,313.85 85.80,313.80 84.93,314.67 C83.42,316.18 84.59,318.00 87.06,318.00 C88.13,318.00 89.00,318.45 89.00,319.00 ZM 85.69 119.97 C89.40,122.89 94.53,122.65 96.61,119.47 C97.52,118.08 97.95,116.62 97.56,116.23 C97.17,115.84 96.41,116.30 95.88,117.26 C94.60,119.54 92.26,119.45 88.18,116.97 C84.33,114.62 84.13,111.23 87.74,109.44 C88.98,108.82 89.69,108.02 89.33,107.66 C87.96,106.29 86.43,107.12 84.16,110.45 C81.45,114.43 81.86,116.96 85.69,119.97 ZM 127.00 82.14 C127.00,83.99 127.36,83.88 131.00,81.00 C133.50,79.02 134.99,77.02 134.97,75.67 C134.94,73.55 134.91,73.54 133.47,75.44 C132.66,76.51 132.00,77.75 132.00,78.19 C132.00,78.64 131.63,79.00 131.19,79.00 C130.07,79.00 123.44,69.97 123.75,68.88 C124.15,67.46 122.35,67.87 120.99,69.51 C119.96,70.75 120.23,71.73 122.54,75.05 C124.07,77.27 125.71,79.32 126.17,79.60 C126.62,79.89 127.00,81.03 127.00,82.14 ZM 119.87 337.33 C119.67,337.46 118.82,338.07 118.00,338.69 C116.84,339.55 115.47,339.27 112.00,337.45 C109.53,336.15 108.02,335.07 108.65,335.05 C110.02,334.99 114.13,327.46 113.27,326.60 C112.94,326.27 113.17,326.00 113.78,326.00 C115.76,326.00 122.01,330.17 121.43,331.11 C121.13,331.61 120.16,331.30 119.29,330.43 C118.01,329.15 117.55,329.10 116.87,330.18 C116.36,330.99 116.58,331.91 117.45,332.56 C118.39,333.26 118.55,334.10 117.94,335.06 C117.31,336.05 117.03,336.11 117.02,335.25 C117.01,334.56 116.29,334.00 115.43,334.00 C114.46,334.00 113.99,334.67 114.22,335.75 C114.47,336.98 115.41,337.44 117.41,337.30 C118.97,337.18 120.08,337.20 119.87,337.33 ZM 292.00 333.71 C292.00,334.90 290.57,336.41 288.25,337.69 L 284.50 339.74 L 279.49 329.33 L 283.27 327.49 C286.17,326.08 287.33,325.93 288.23,326.83 C289.12,327.72 288.90,328.00 287.26,328.00 C284.70,328.00 283.83,329.11 284.95,330.92 C285.59,331.96 285.97,331.87 286.74,330.49 C287.45,329.24 287.93,329.08 288.46,329.94 C288.88,330.62 288.41,331.72 287.35,332.50 C285.82,333.63 285.73,334.09 286.82,335.18 C287.91,336.27 288.47,336.09 290.07,334.14 C291.83,331.99 292.00,331.95 292.00,333.71 ZM 325.27 310.40 C324.35,311.31 323.69,310.99 321.45,308.56 C320.32,307.33 318.54,305.84 317.50,305.26 C315.84,304.33 315.78,303.97 316.99,302.52 C317.83,301.50 319.30,301.02 320.71,301.29 C323.41,301.80 324.89,300.28 322.57,299.39 C321.71,299.06 321.29,298.35 321.62,297.80 C322.26,296.77 330.00,303.73 330.00,305.34 C330.00,305.87 327.96,306.01 325.25,305.66 L 320.50 305.04 L 323.19 307.42 C324.66,308.73 325.60,310.07 325.27,310.40 ZM 106.80 101.38 C106.30,104.87 102.58,104.56 98.34,100.67 C95.08,97.68 94.75,97.00 95.91,95.61 C97.83,93.29 100.40,93.62 103.98,96.63 C106.02,98.35 107.00,100.00 106.80,101.38 ZM 211.02 53.96 C208.80,58.11 205.00,55.61 205.00,49.99 C205.00,45.15 207.23,42.10 209.69,43.60 C211.84,44.91 212.62,50.98 211.02,53.96 ZM 290.98 98.48 C292.72,100.57 292.91,100.49 298.00,95.46 C300.48,93.01 303.07,91.22 303.77,91.48 C305.40,92.09 303.82,88.92 301.55,87.05 C300.27,85.98 300.00,86.01 300.00,87.26 C300.00,88.43 295.63,92.59 290.11,96.66 C289.89,96.82 290.28,97.64 290.98,98.48 ZM 167.93 355.06 C166.14,356.20 165.08,356.15 162.24,354.78 C160.26,353.82 160.02,353.04 160.24,348.35 C160.50,342.97 160.92,342.52 164.43,343.90 C165.76,344.42 166.00,344.88 165.18,345.39 C163.40,346.49 163.68,353.66 165.53,354.37 C167.24,355.03 169.00,351.51 169.00,347.43 C169.00,346.06 169.59,345.00 170.35,345.00 C171.45,345.00 171.48,345.83 170.53,349.58 C169.89,352.10 168.72,354.56 167.93,355.06 ZM 237.88 355.38 C232.72,356.41 232.47,356.21 231.43,350.55 L 230.43 345.10 L 234.31 344.45 C236.68,344.05 238.62,344.22 239.30,344.90 C240.10,345.70 239.54,346.00 237.23,346.00 C234.80,346.00 234.20,346.36 234.65,347.53 C235.02,348.50 235.93,348.84 237.12,348.46 C238.40,348.05 239.00,348.35 239.00,349.40 C239.00,350.31 238.43,350.72 237.60,350.40 C235.78,349.70 234.89,351.20 236.04,353.05 C236.78,354.24 237.30,354.28 238.97,353.24 C240.64,352.21 241.00,352.23 241.00,353.37 C241.00,354.13 239.59,355.03 237.88,355.38 ZM 305.74 327.06 C302.51,329.76 298.39,329.53 296.44,326.55 C294.36,323.37 294.85,321.19 298.25,318.66 C300.39,317.06 301.27,316.87 302.20,317.80 C303.13,318.73 302.80,319.00 300.70,319.00 C298.94,319.00 298.00,319.53 298.00,320.54 C298.00,322.78 301.01,327.00 302.62,327.00 C304.25,327.00 304.45,325.40 302.93,324.46 C302.24,324.03 302.46,323.15 303.58,321.91 C305.25,320.06 305.33,320.08 306.64,322.60 C307.85,324.94 307.77,325.37 305.74,327.06 ZM 302.25 256.50 C305.33,260.69 307.00,261.99 307.00,260.20 C307.00,259.76 306.50,258.90 305.89,258.29 C304.34,256.74 305.83,254.72 308.08,255.31 C309.82,255.77 312.83,253.49 311.82,252.48 C311.36,252.03 301.60,250.00 299.86,250.00 C298.24,250.00 299.00,252.09 302.25,256.50 ZM 203.75 357.75 C202.37,359.49 198.46,359.31 196.57,357.43 C195.62,356.47 195.00,354.12 195.00,351.43 C195.00,347.50 195.26,347.00 197.25,347.00 C199.32,347.00 199.47,347.39 199.16,351.86 C198.91,355.50 199.21,356.86 200.34,357.30 C202.70,358.21 204.25,355.42 203.83,351.02 C203.58,348.43 203.86,347.00 204.60,347.00 C205.98,347.00 205.28,355.82 203.75,357.75 ZM 338.47 294.06 C337.46,296.01 336.20,296.99 334.72,296.96 C332.65,296.92 332.68,296.82 335.25,295.43 C338.61,293.61 338.97,291.46 335.75,292.49 C330.74,294.09 328.52,293.64 328.20,290.95 C327.86,288.01 331.17,284.37 333.11,285.57 C333.98,286.10 333.70,286.57 332.17,287.13 C330.98,287.57 330.00,288.40 330.00,288.97 C330.00,290.29 332.69,290.32 333.50,289.00 C334.47,287.43 338.72,287.83 339.39,289.56 C339.72,290.42 339.30,292.45 338.47,294.06 ZM 184.73 356.75 C184.76,357.44 183.77,358.00 182.54,358.00 C180.44,358.00 180.33,357.67 180.79,352.84 C181.22,348.35 181.07,347.76 179.64,348.31 C178.58,348.72 178.00,348.42 178.00,347.47 C178.00,345.88 179.96,345.64 184.88,346.62 C188.05,347.26 189.24,349.00 186.50,349.00 C185.14,349.00 184.54,351.64 184.73,356.75 ZM 147.64 349.25 C147.72,350.33 147.08,351.00 145.95,351.00 C143.29,351.00 143.14,350.07 144.91,344.50 L 146.50 339.50 L 150.25 340.43 C152.54,340.99 154.00,341.95 154.00,342.88 C154.00,344.06 153.73,344.13 152.80,343.20 C151.13,341.53 149.00,341.70 149.00,343.50 C149.00,344.33 149.68,345.00 150.50,345.00 C151.32,345.00 152.00,345.60 152.00,346.33 C152.00,347.06 150.99,347.62 149.75,347.58 C148.19,347.52 147.54,348.04 147.64,349.25 ZM 321.00 176.34 C321.00,179.82 321.14,179.99 323.10,178.95 C324.25,178.33 327.63,177.98 330.60,178.16 L 336.00 178.50 L 335.92 175.50 C335.88,173.85 335.62,173.06 335.34,173.75 C334.68,175.38 323.83,175.43 322.20,173.80 C321.27,172.87 321.00,173.43 321.00,176.34 ZM 161.82 308.86 C165.39,310.17 167.75,310.22 168.50,309.00 C168.86,308.41 167.82,308.00 165.99,308.00 C163.53,308.00 162.93,307.62 163.22,306.25 C163.45,305.12 164.37,304.58 165.79,304.74 C168.59,305.04 168.69,303.41 165.93,302.69 C164.16,302.23 164.02,301.83 164.97,300.06 C165.87,298.38 165.78,297.85 164.50,297.36 L 164.47 297.35 C163.81,297.10 163.37,296.93 163.01,297.03 C162.27,297.25 161.88,298.60 160.67,302.69 L 159.14 307.88 ZM 133.76 296.94 C135.82,298.15 138.19,297.92 138.68,296.46 C138.87,295.89 137.80,295.44 136.29,295.46 C132.77,295.51 132.27,293.20 135.03,289.68 C137.53,286.51 139.98,286.21 140.71,288.99 C140.99,290.08 141.63,290.73 142.11,290.43 C143.64,289.49 143.09,288.11 140.51,286.41 C137.14,284.21 133.42,285.29 131.49,289.02 C129.79,292.31 130.58,295.06 133.76,296.94 ZM 276.50 285.00 C277.60,285.48 279.56,285.90 280.85,285.93 C283.20,286.00 283.20,286.00 281.35,283.19 C277.41,277.18 276.12,275.81 275.06,276.46 C274.35,276.90 274.76,277.82 276.23,279.07 L 278.50 280.99 L 274.11 280.75 C269.04,280.46 267.21,282.57 271.68,283.53 C273.23,283.87 275.40,284.53 276.50,285.00 ZM 191.22 313.44 C192.44,314.30 194.64,315.00 196.11,315.00 C198.30,315.00 198.85,314.47 199.21,312.00 C199.60,309.38 199.35,309.00 197.27,309.00 C195.86,309.00 195.15,309.43 195.53,310.05 C195.89,310.62 195.91,311.80 195.58,312.66 C195.09,313.93 194.69,313.99 193.49,312.99 C191.76,311.56 191.55,307.72 193.04,304.93 C193.84,303.42 193.74,303.00 192.57,303.00 C188.81,303.00 187.77,311.03 191.22,313.44 ZM 237.39 304.75 C238.49,309.14 238.78,309.41 241.38,308.41 C242.77,307.87 242.76,307.57 241.35,305.41 C240.48,304.08 240.06,303.00 240.41,303.00 C240.76,303.00 240.31,301.88 239.41,300.50 L 237.77 298.00 L 241.51 298.00 C244.63,298.00 245.05,297.77 244.06,296.57 C243.06,295.37 242.31,295.35 239.19,296.46 C236.90,297.28 235.66,298.30 235.91,299.14 C236.14,299.89 236.81,302.41 237.39,304.75 ZM 91.25 256.85 C92.75,258.35 93.50,258.30 94.92,256.59 C95.57,255.82 97.66,254.44 99.57,253.53 L 103.05 251.88 L 100.78 249.09 C99.52,247.55 97.92,246.51 97.22,246.77 C96.28,247.11 96.41,247.58 97.68,248.51 C99.25,249.65 98.96,250.07 94.76,252.74 C91.23,254.97 90.37,255.97 91.25,256.85 ZM 317.83 317.37 C317.65,317.48 316.83,318.07 316.00,318.70 C314.79,319.61 313.94,319.08 311.56,315.91 C309.94,313.76 308.15,312.00 307.59,312.00 C307.02,312.00 307.59,311.27 308.86,310.39 C311.03,308.87 311.25,308.91 312.77,311.08 C313.65,312.34 315.23,314.23 316.27,315.27 C317.31,316.31 318.02,317.26 317.83,317.37 ZM 266.31 295.75 C266.34,297.29 266.55,297.30 268.94,295.80 C270.78,294.65 270.74,294.46 267.93,290.91 C266.32,288.88 265.00,286.71 265.00,286.11 C265.00,285.50 264.44,285.01 263.75,285.02 C262.15,285.03 259.11,286.96 260.65,286.98 C261.92,287.00 266.27,293.75 266.31,295.75 ZM 213.20 311.25 C212.86,312.96 209.98,313.65 208.67,312.33 C208.30,311.97 208.00,309.94 208.00,307.83 C208.00,304.46 208.29,304.00 210.39,304.00 C212.23,304.00 212.86,304.63 213.16,306.75 C213.38,308.26 213.40,310.29 213.20,311.25 ZM 98.95 266.90 C99.90,268.69 100.19,268.59 103.68,265.40 C105.72,263.53 107.75,262.00 108.20,262.00 C109.24,262.00 109.19,260.86 108.08,259.10 C107.37,257.98 106.40,258.44 103.35,261.34 C101.23,263.34 99.15,264.99 98.71,264.99 C98.28,265.00 98.39,265.86 98.95,266.90 ZM 119.20 286.80 C121.10,288.70 121.69,288.22 121.24,285.16 C120.91,282.95 121.49,281.77 123.86,279.78 C126.92,277.20 126.99,275.99 124.08,276.01 C122.33,276.01 118.00,281.78 118.00,284.11 C118.00,284.93 118.54,286.14 119.20,286.80 ZM 296.00 265.45 C297.92,267.35 299.56,268.92 299.63,268.95 C299.70,268.98 300.27,268.38 300.89,267.63 C301.79,266.55 301.07,265.48 297.43,262.50 C293.18,259.02 292.72,258.86 291.20,260.37 C289.85,261.72 289.82,262.00 291.04,262.01 C291.84,262.01 294.08,263.56 296.00,265.45 ZM 291.53 275.96 C290.52,277.59 289.59,277.23 286.49,273.99 C284.36,271.76 283.90,270.70 284.74,269.86 C285.36,269.24 286.54,268.99 287.37,269.31 C289.46,270.11 292.31,274.68 291.53,275.96 ZM 228.84 308.59 C228.42,310.76 226.15,311.63 225.59,309.83 C225.36,309.10 224.92,307.04 224.61,305.25 C224.14,302.50 224.35,302.00 226.01,302.00 C228.05,302.00 229.47,305.32 228.84,308.59 ZM 312.81 238.25 C313.06,239.29 314.17,240.00 315.54,240.00 C318.30,240.00 319.16,237.23 317.15,234.87 C315.87,233.36 315.63,233.36 314.07,234.87 C313.14,235.77 312.57,237.29 312.81,238.25 ZM 80.49 239.18 C80.22,239.45 81.27,239.67 82.82,239.67 C85.90,239.67 86.47,237.47 84.12,234.65 C83.00,233.30 82.67,233.32 81.09,234.82 C80.05,235.81 79.66,236.95 80.15,237.59 C80.61,238.19 80.76,238.91 80.49,239.18 ZM 73.82 150.76 C74.15,153.07 72.60,153.67 70.22,152.15 C68.47,151.05 69.83,147.82 71.88,148.21 C72.77,148.38 73.64,149.53 73.82,150.76 ZM 332.82 159.17 C332.39,162.07 330.39,162.60 329.09,160.16 C328.27,158.63 328.38,158.07 329.60,157.60 C332.34,156.55 333.15,156.94 332.82,159.17 ZM 83.50 140.00 C84.59,141.76 87.00,141.07 87.00,139.00 C87.00,137.90 86.35,137.00 85.56,137.00 C83.79,137.00 82.66,138.65 83.50,140.00 ZM 77.00 167.00 C77.00,168.51 77.52,169.05 78.75,168.81 C79.71,168.62 80.50,167.81 80.50,167.00 C80.50,166.19 79.71,165.38 78.75,165.19 C77.52,164.95 77.00,165.49 77.00,167.00 ZM 116.00 270.44 C116.00,271.23 115.64,272.10 115.20,272.38 C113.92,273.17 111.68,271.33 112.43,270.11 C113.42,268.51 116.00,268.74 116.00,270.44 ZM 77.12 195.65 C77.73,196.38 78.63,196.73 79.11,196.43 C80.49,195.58 80.16,193.00 78.67,193.00 C76.60,193.00 75.91,194.18 77.12,195.65 ZM 268.00 337.50 C268.00,338.33 268.67,339.00 269.50,339.00 C270.33,339.00 271.00,338.33 271.00,337.50 C271.00,336.67 270.33,336.00 269.50,336.00 C268.67,336.00 268.00,336.67 268.00,337.50 ZM 217.00 349.50 C217.00,350.33 217.68,351.00 218.50,351.00 C219.32,351.00 220.00,350.33 220.00,349.50 C220.00,348.67 219.32,348.00 218.50,348.00 C217.68,348.00 217.00,348.67 217.00,349.50 ZM 252.67 303.33 C253.82,304.48 255.00,304.06 255.00,302.50 C255.00,301.67 254.32,301.00 253.50,301.00 C251.94,301.00 251.52,302.18 252.67,303.33 ZM 101.00 322.00 C101.00,322.55 101.42,323.00 101.94,323.00 C102.46,323.00 103.16,322.55 103.50,322.00 C103.84,321.45 103.42,321.00 102.56,321.00 C101.70,321.00 101.00,321.45 101.00,322.00 ZM 62.50 281.00 C62.16,281.55 62.33,282.00 62.88,282.00 C63.43,282.00 64.16,281.55 64.50,281.00 C64.84,280.45 64.67,280.00 64.12,280.00 C63.57,280.00 62.84,280.45 62.50,281.00 Z" fill="rgb(9,37,59)"/>
<path d="M 188.39 146.70 C188.57,139.40 188.44,134.19 188.05,134.61 C187.59,135.10 186.46,138.19 185.52,141.47 C183.43,148.78 181.49,153.12 178.54,155.58 C181.70,152.91 183.73,148.00 186.10,139.32 C188.16,131.77 189.84,127.47 190.46,128.16 C190.63,128.35 190.16,132.10 189.43,136.50 C189.02,138.96 188.65,142.76 188.39,146.70 ZM 206.40 137.80 C205.77,136.16 205.13,134.36 204.49,132.41 C202.40,126.04 199.88,119.86 198.89,118.67 C197.19,116.61 197.13,116.60 197.53,118.50 C199.32,126.79 200.95,137.64 202.09,147.58 C200.65,135.45 198.48,122.61 196.50,117.01 C195.71,114.76 195.51,113.19 196.05,113.53 C197.74,114.57 201.48,123.05 204.99,133.78 C205.46,135.21 205.93,136.55 206.40,137.80 ZM 334.30 154.83 C334.22,154.49 334.14,154.24 334.06,154.11 C333.73,153.58 331.24,153.57 328.00,154.09 C326.41,154.34 324.76,154.50 323.41,154.56 C326.64,154.22 331.40,152.75 332.20,151.58 C333.17,150.15 333.78,151.01 334.30,154.83 ZM 222.71 59.30 C222.34,59.21 222.04,59.05 221.81,58.85 C222.06,58.95 222.39,59.00 222.81,59.00 C224.17,59.00 224.93,58.10 225.35,56.00 C225.53,55.08 225.77,54.40 226.10,53.93 C226.01,54.45 226.10,55.26 226.31,56.50 C226.89,60.08 226.59,60.31 222.71,59.30 ZM 268.00 337.50 C268.00,336.67 268.67,336.00 269.50,336.00 C270.33,336.00 271.00,336.67 271.00,337.50 C271.00,338.33 270.33,339.00 269.50,339.00 C268.67,339.00 268.00,338.33 268.00,337.50 ZM 188.05 157.03 L 188.00 166.90 L 187.70 166.70 ZM 212.28 148.62 C216.14,153.06 221.02,154.37 228.25,153.71 C220.96,154.37 216.15,153.14 212.28,148.62 ZM 334.04 164.47 C334.50,163.73 334.77,162.66 334.85,161.28 C334.85,162.89 334.60,163.79 334.04,164.47 ZM 332.49 165.65 C331.68,165.98 330.91,165.76 329.45,164.97 C330.65,165.62 331.67,165.84 332.49,165.65 ZM 192.49 169.99 C194.95,171.69 197.43,173.93 197.99,174.97 C197.43,173.93 194.89,171.65 192.35,169.90 ZM 319.21 154.75 C318.82,155.38 318.92,156.64 319.59,158.36 C318.90,156.59 318.79,155.35 319.21,154.75 ZM 227.92 53.00 C227.94,53.00 227.96,53.00 227.98,53.00 C229.09,53.00 230.00,53.48 230.00,54.06 C230.00,53.49 229.07,53.02 227.92,53.00 Z" fill="rgb(93,107,113)"/>
<path d="M 227.36 368.41 C195.88,372.55 168.64,370.07 138.50,360.33 C122.11,355.04 98.65,342.55 83.50,331.06 C74.31,324.09 55.69,305.64 49.26,297.13 C46.09,292.93 43.25,289.27 42.95,289.00 C40.14,286.43 24.00,257.06 24.00,254.52 C24.00,254.23 32.33,254.00 42.50,254.00 C52.84,254.00 61.00,254.40 61.00,254.90 C61.00,255.40 64.25,260.69 68.22,266.65 C77.27,280.23 95.50,298.79 109.10,308.26 C127.22,320.87 148.59,330.00 171.00,334.68 C183.16,337.23 216.98,337.24 229.00,334.71 C271.94,325.66 305.98,303.87 330.39,269.79 C333.43,265.55 336.84,260.27 337.98,258.04 L 340.04 254.00 L 358.52 254.00 C368.68,254.00 377.00,254.26 377.00,254.59 C377.00,254.91 374.65,259.74 371.79,265.34 C342.98,321.50 288.53,360.36 227.36,368.41 ZM 206.40 137.80 C208.20,142.56 210.08,146.10 212.28,148.62 C216.15,153.14 220.96,154.37 228.25,153.71 L 234.21 153.17 L 231.76 155.84 C228.83,159.01 226.00,163.14 226.00,164.22 C226.00,164.65 226.90,165.00 228.00,165.00 C228.65,165.00 229.10,165.11 229.41,165.42 C229.04,165.09 228.45,165.00 227.53,165.00 C225.40,165.00 224.85,165.73 223.59,170.25 C222.78,173.14 221.19,180.30 220.06,186.16 C218.92,192.02 217.13,198.77 216.07,201.16 L 214.14 205.50 L 214.07 194.22 C213.97,178.25 211.24,172.76 205.83,177.65 C204.11,179.21 204.00,179.18 204.00,177.15 C204.00,175.97 203.55,175.00 203.00,175.00 C202.85,175.00 202.72,175.57 202.60,176.67 C202.74,175.29 202.90,174.50 203.07,174.33 C204.37,173.03 203.65,160.73 202.09,147.58 C200.95,137.64 199.32,126.79 197.53,118.50 C197.13,116.60 197.19,116.61 198.89,118.67 C199.88,119.86 202.40,126.04 204.49,132.41 C205.13,134.36 205.77,136.16 206.40,137.80 ZM 188.39 146.70 C188.19,149.80 188.07,152.99 188.05,155.70 L 188.05 157.03 L 187.70 166.70 L 188.00 166.90 L 192.35 169.90 L 192.36 169.90 C192.40,169.93 192.45,169.97 192.50,170.00 C190.69,168.89 188.91,168.00 188.50,168.00 C188.08,168.00 188.05,170.70 188.42,174.00 C189.08,179.84 188.53,181.13 186.32,178.92 C185.72,178.32 184.17,177.98 182.87,178.17 C179.23,178.68 177.65,184.66 178.82,193.49 C179.33,197.35 179.61,200.65 179.45,200.84 C178.85,201.53 175.60,194.35 173.41,187.50 L 171.16 180.50 L 171.08 197.60 L 171.00 214.70 L 177.43 217.43 C176.66,217.13 175.89,216.86 175.13,216.64 L 170.50 215.29 L 170.23 194.58 L 169.96 173.87 L 167.54 174.19 L 166.57 174.31 C166.72,174.25 166.88,174.21 167.06,174.18 C168.13,174.00 169.00,173.22 169.00,172.43 C169.00,171.43 167.80,171.00 165.00,171.00 L 164.50 171.00 C166.43,171.00 168.00,170.60 168.00,170.11 C168.00,169.62 166.43,166.93 164.50,164.14 C162.57,161.34 161.00,158.92 161.00,158.77 C161.00,158.62 164.04,158.49 167.75,158.47 C172.62,158.45 175.95,157.77 178.54,155.58 C181.49,153.12 183.43,148.78 185.52,141.47 C186.46,138.19 187.59,135.10 188.05,134.61 C188.44,134.19 188.57,139.40 188.39,146.70 ZM 21.45 257.53 C22.25,259.44 22.72,261.00 22.50,261.00 C22.28,261.00 18.72,256.03 14.60,249.95 C14.25,249.44 13.92,248.95 13.60,248.49 C10.08,243.30 8.32,240.72 8.88,240.05 C9.42,239.39 12.23,240.59 17.80,242.99 C18.31,243.21 18.84,243.43 19.39,243.67 C23.73,245.53 27.54,246.79 27.86,246.48 C28.17,246.16 30.09,242.93 32.12,239.29 L 35.81 232.67 L 40.41 241.81 C42.93,246.84 45.00,251.19 45.00,251.48 C45.00,251.77 39.38,252.00 32.50,252.00 C24.57,252.00 20.00,252.38 20.00,253.03 C20.00,253.60 20.65,255.62 21.45,257.53 ZM 386.92 247.67 C380.42,257.38 377.44,261.19 378.35,258.66 C378.71,257.64 379.28,255.73 379.61,254.41 L 380.22 252.00 L 367.61 252.00 C360.67,252.00 355.00,251.77 355.00,251.48 C355.00,251.19 357.07,246.84 359.59,241.81 L 364.19 232.67 L 367.88 239.29 C369.91,242.93 371.82,246.15 372.12,246.46 C372.43,246.76 376.91,245.24 382.07,243.07 C387.24,240.91 391.63,239.30 391.82,239.49 C392.01,239.68 389.81,243.36 386.92,247.67 ZM 69.85 288.48 C70.04,288.29 69.89,287.63 69.51,287.02 C69.01,286.21 68.43,286.23 67.39,287.09 C66.60,287.75 65.63,287.96 65.23,287.56 C64.83,287.16 65.29,286.26 66.26,285.55 C67.90,284.35 67.85,283.98 65.34,279.49 L 62.66 274.70 L 58.86 279.10 C54.55,284.09 54.24,285.00 56.83,285.00 C59.35,285.00 60.19,286.06 58.91,287.61 C56.92,290.01 58.79,290.77 64.23,289.78 C67.13,289.25 69.66,288.67 69.85,288.48 ZM 275.29 343.00 C277.04,341.40 276.77,338.00 274.89,338.00 C274.40,338.00 274.00,337.13 274.00,336.06 C274.00,334.99 273.58,333.86 273.07,333.54 C271.95,332.85 263.79,335.96 264.21,336.91 C264.37,337.27 265.38,339.64 266.46,342.16 C268.32,346.50 268.57,346.70 270.96,345.70 C272.36,345.12 274.31,343.90 275.29,343.00 ZM 103.00 328.62 C103.00,327.07 103.71,326.05 105.00,325.71 C107.03,325.18 107.57,323.33 106.23,321.48 C105.48,320.42 100.42,317.00 99.62,317.00 C99.37,317.00 98.14,318.69 96.88,320.75 C95.63,322.81 94.22,324.76 93.76,325.09 C93.29,325.41 93.60,326.25 94.45,326.96 C95.69,327.99 96.30,327.99 97.50,327.00 C98.75,325.97 99.00,326.09 99.00,327.71 C99.00,330.00 99.81,331.00 101.67,331.00 C102.40,331.00 103.00,329.94 103.00,328.62 ZM 218.36 356.50 C217.61,354.53 218.97,354.57 220.42,356.55 C221.12,357.52 222.23,357.85 223.33,357.43 C224.99,356.79 224.97,356.59 223.00,354.50 C221.19,352.58 221.11,352.17 222.45,351.66 C224.53,350.86 224.42,348.28 222.25,347.19 C221.29,346.71 218.62,346.51 216.31,346.75 C212.33,347.18 212.17,347.32 213.06,349.66 C213.58,351.02 214.00,353.45 214.00,355.07 C214.00,357.52 214.40,358.00 216.47,358.00 C218.25,358.00 218.78,357.58 218.36,356.50 ZM 79.78 303.26 C81.93,301.82 81.97,301.62 80.39,299.87 C78.80,298.12 78.64,298.11 77.42,299.76 C76.36,301.20 75.91,301.27 74.82,300.18 C73.73,299.09 73.84,298.62 75.45,297.42 C77.22,296.12 77.26,295.83 75.86,294.43 C74.47,293.04 73.96,293.24 70.68,296.52 C68.65,298.55 66.55,299.84 65.92,299.45 C65.30,299.07 65.56,299.92 66.49,301.35 C67.99,303.64 68.37,303.77 69.67,302.47 C71.34,300.80 74.00,300.50 74.00,301.99 C74.00,302.54 73.12,303.53 72.04,304.21 C70.25,305.32 70.22,305.58 71.64,307.16 C73.12,308.79 73.33,308.77 75.35,306.84 C76.53,305.71 78.53,304.10 79.78,303.26 ZM 169.32 152.96 C165.80,151.59 164.55,148.33 166.45,145.43 C169.43,140.89 176.46,143.39 175.80,148.76 C175.41,152.02 172.21,154.09 169.32,152.96 ZM 218.65 144.17 C216.50,141.79 216.56,139.71 218.83,137.65 C221.23,135.48 224.29,135.55 226.35,137.83 C228.42,140.13 228.45,142.40 226.43,144.43 C224.32,146.54 220.69,146.42 218.65,144.17 ZM 89.00 319.00 C89.00,318.45 88.13,318.00 87.06,318.00 C84.59,318.00 83.42,316.18 84.93,314.67 C85.80,313.80 86.29,313.85 86.93,314.89 C87.41,315.67 88.31,315.93 89.02,315.49 C89.95,314.91 89.85,314.49 88.61,313.80 C87.70,313.29 87.22,312.45 87.54,311.94 C88.53,310.33 90.03,310.91 90.93,313.25 C91.75,315.37 91.84,315.39 92.57,313.59 C93.15,312.15 92.53,310.97 89.99,308.70 C86.83,305.87 86.61,305.82 85.92,307.69 C85.52,308.77 83.81,310.82 82.13,312.23 L 79.08 314.80 L 82.29 317.36 C85.57,319.96 89.00,320.80 89.00,319.00 ZM 119.87 337.33 C120.08,337.20 118.97,337.18 117.41,337.30 C115.41,337.44 114.47,336.98 114.22,335.75 C113.99,334.67 114.46,334.00 115.43,334.00 C116.29,334.00 117.01,334.56 117.02,335.25 C117.03,336.11 117.31,336.05 117.94,335.06 C118.55,334.10 118.39,333.26 117.45,332.56 C116.58,331.91 116.36,330.99 116.87,330.18 C117.55,329.10 118.01,329.15 119.29,330.43 C120.16,331.30 121.13,331.61 121.43,331.11 C122.01,330.17 115.76,326.00 113.78,326.00 C113.17,326.00 112.94,326.27 113.27,326.60 C114.13,327.46 110.02,334.99 108.65,335.05 C108.02,335.07 109.53,336.15 112.00,337.45 C115.47,339.27 116.84,339.55 118.00,338.69 C118.82,338.07 119.67,337.46 119.87,337.33 ZM 292.00 333.71 C292.00,331.95 291.83,331.99 290.07,334.14 C288.47,336.09 287.91,336.27 286.82,335.18 C285.73,334.09 285.82,333.63 287.35,332.50 C288.41,331.72 288.88,330.62 288.46,329.94 C287.93,329.08 287.45,329.24 286.74,330.49 C285.97,331.87 285.59,331.96 284.95,330.92 C283.83,329.11 284.70,328.00 287.26,328.00 C288.90,328.00 289.12,327.72 288.23,326.83 C287.33,325.93 286.17,326.08 283.27,327.49 L 279.49 329.33 L 284.50 339.74 L 288.25 337.69 C290.57,336.41 292.00,334.90 292.00,333.71 ZM 325.27 310.40 C325.60,310.07 324.66,308.73 323.19,307.42 L 320.50 305.04 L 325.25 305.66 C327.96,306.01 330.00,305.87 330.00,305.34 C330.00,303.73 322.26,296.77 321.62,297.80 C321.29,298.35 321.71,299.06 322.57,299.39 C324.89,300.28 323.41,301.80 320.71,301.29 C319.30,301.02 317.83,301.50 316.99,302.52 C315.78,303.97 315.84,304.33 317.50,305.26 C318.54,305.84 320.32,307.33 321.45,308.56 C323.69,310.99 324.35,311.31 325.27,310.40 ZM 167.93 355.06 C168.72,354.56 169.89,352.10 170.53,349.58 C171.48,345.83 171.45,345.00 170.35,345.00 C169.59,345.00 169.00,346.06 169.00,347.43 C169.00,351.51 167.24,355.03 165.53,354.37 C163.68,353.66 163.40,346.49 165.18,345.39 C166.00,344.88 165.76,344.42 164.43,343.90 C160.92,342.52 160.50,342.97 160.24,348.35 C160.02,353.04 160.26,353.82 162.24,354.78 C165.08,356.15 166.14,356.20 167.93,355.06 ZM 237.88 355.38 C239.59,355.03 241.00,354.13 241.00,353.37 C241.00,352.23 240.64,352.21 238.97,353.24 C237.30,354.28 236.78,354.24 236.04,353.05 C234.89,351.20 235.78,349.70 237.60,350.40 C238.43,350.72 239.00,350.31 239.00,349.40 C239.00,348.35 238.40,348.05 237.12,348.46 C235.93,348.84 235.02,348.50 234.65,347.53 C234.20,346.36 234.80,346.00 237.23,346.00 C239.54,346.00 240.10,345.70 239.30,344.90 C238.62,344.22 236.68,344.05 234.31,344.45 L 230.43 345.10 L 231.43 350.55 C232.47,356.21 232.72,356.41 237.88,355.38 ZM 305.74 327.06 C307.77,325.37 307.85,324.94 306.64,322.60 C305.33,320.08 305.25,320.06 303.58,321.91 C302.46,323.15 302.24,324.03 302.93,324.46 C304.45,325.40 304.25,327.00 302.62,327.00 C301.01,327.00 298.00,322.78 298.00,320.54 C298.00,319.53 298.94,319.00 300.70,319.00 C302.80,319.00 303.13,318.73 302.20,317.80 C301.27,316.87 300.39,317.06 298.25,318.66 C294.85,321.19 294.36,323.37 296.44,326.55 C298.39,329.53 302.51,329.76 305.74,327.06 ZM 203.75 357.75 C205.28,355.82 205.98,347.00 204.60,347.00 C203.86,347.00 203.58,348.43 203.83,351.02 C204.25,355.42 202.70,358.21 200.34,357.30 C199.21,356.86 198.91,355.50 199.16,351.86 C199.47,347.39 199.32,347.00 197.25,347.00 C195.26,347.00 195.00,347.50 195.00,351.43 C195.00,354.12 195.62,356.47 196.57,357.43 C198.46,359.31 202.37,359.49 203.75,357.75 ZM 338.47 294.06 C339.30,292.45 339.72,290.42 339.39,289.56 C338.72,287.83 334.47,287.43 333.50,289.00 C332.69,290.32 330.00,290.29 330.00,288.97 C330.00,288.40 330.98,287.57 332.17,287.13 C333.70,286.57 333.98,286.10 333.11,285.57 C331.17,284.37 327.86,288.01 328.20,290.95 C328.52,293.64 330.74,294.09 335.75,292.49 C338.97,291.46 338.61,293.61 335.25,295.43 C332.68,296.82 332.65,296.92 334.72,296.96 C336.20,296.99 337.46,296.01 338.47,294.06 ZM 184.73 356.75 C184.54,351.64 185.14,349.00 186.50,349.00 C189.24,349.00 188.05,347.26 184.88,346.62 C179.96,345.64 178.00,345.88 178.00,347.47 C178.00,348.42 178.58,348.72 179.64,348.31 C181.07,347.76 181.22,348.35 180.79,352.84 C180.33,357.67 180.44,358.00 182.54,358.00 C183.77,358.00 184.76,357.44 184.73,356.75 ZM 147.64 349.25 C147.54,348.04 148.19,347.52 149.75,347.58 C150.99,347.62 152.00,347.06 152.00,346.33 C152.00,345.60 151.32,345.00 150.50,345.00 C149.68,345.00 149.00,344.33 149.00,343.50 C149.00,341.70 151.13,341.53 152.80,343.20 C153.73,344.13 154.00,344.06 154.00,342.88 C154.00,341.95 152.54,340.99 150.25,340.43 L 146.50 339.50 L 144.91 344.50 C143.14,350.07 143.29,351.00 145.95,351.00 C147.08,351.00 147.72,350.33 147.64,349.25 ZM 317.83 317.37 C318.02,317.26 317.31,316.31 316.27,315.27 C315.23,314.23 313.65,312.34 312.77,311.08 C311.25,308.91 311.03,308.87 308.86,310.39 C307.59,311.27 307.02,312.00 307.59,312.00 C308.15,312.00 309.94,313.76 311.56,315.91 C313.94,319.08 314.79,319.61 316.00,318.70 C316.83,318.07 317.65,317.48 317.83,317.37 ZM 217.00 349.50 C217.00,348.67 217.68,348.00 218.50,348.00 C219.32,348.00 220.00,348.67 220.00,349.50 C220.00,350.33 219.32,351.00 218.50,351.00 C217.68,351.00 217.00,350.33 217.00,349.50 ZM 101.00 322.00 C101.00,321.45 101.70,321.00 102.56,321.00 C103.42,321.00 103.84,321.45 103.50,322.00 C103.16,322.55 102.46,323.00 101.94,323.00 C101.42,323.00 101.00,322.55 101.00,322.00 ZM 62.50 281.00 C62.84,280.45 63.57,280.00 64.12,280.00 C64.67,280.00 64.84,280.45 64.50,281.00 C64.16,281.55 63.43,282.00 62.88,282.00 C62.33,282.00 62.16,281.55 62.50,281.00 ZM 193.46 229.68 C191.03,226.56 187.99,223.72 184.73,221.43 C188.91,224.27 192.59,227.78 195.07,231.42 C195.48,232.02 195.89,232.58 196.28,233.07 C195.46,232.15 194.47,230.96 193.46,229.68 ZM 183.12 232.73 C183.49,232.58 182.71,231.97 180.68,230.90 C179.43,230.24 177.47,229.48 175.20,228.73 C180.28,230.36 184.28,232.05 183.63,232.71 C183.58,232.75 183.40,232.76 183.12,232.73 ZM 198.32 234.85 C198.70,233.42 198.99,221.14 199.00,206.23 C199.06,220.18 198.85,233.76 198.32,234.85 ZM 198.38 178.19 C198.11,176.23 197.71,174.90 197.13,173.88 C197.53,174.31 197.83,174.69 197.99,174.97 C198.13,175.25 198.27,176.40 198.38,178.19 ZM 164.68 193.66 L 164.62 196.25 C164.43,204.24 164.33,209.31 164.38,212.58 C164.33,209.31 164.43,204.24 164.62,196.25 C164.64,195.35 164.66,194.48 164.68,193.66 Z" fill="rgb(177,139,85)"/>
<path d="M 0.00 200.00 L 0.00 0.00 L 200.00 0.00 L 400.00 0.00 L 400.00 200.00 L 400.00 400.00 L 200.00 400.00 L 0.00 400.00 L 0.00 200.00 ZM 227.36 368.41 C288.53,360.36 342.98,321.50 371.79,265.34 C374.65,259.74 377.00,254.91 377.00,254.59 C377.00,254.26 368.68,254.00 358.52,254.00 L 340.04 254.00 L 337.98 258.04 C336.84,260.27 333.43,265.55 330.39,269.79 C305.98,303.87 271.94,325.66 229.00,334.71 C216.98,337.24 183.16,337.23 171.00,334.68 C148.59,330.00 127.22,320.87 109.10,308.26 C95.50,298.79 77.27,280.23 68.22,266.65 C64.25,260.69 61.00,255.40 61.00,254.90 C61.00,254.40 52.84,254.00 42.50,254.00 C32.33,254.00 24.00,254.23 24.00,254.52 C24.00,257.06 40.14,286.43 42.95,289.00 C43.25,289.27 46.09,292.93 49.26,297.13 C55.69,305.64 74.31,324.09 83.50,331.06 C98.65,342.55 122.11,355.04 138.50,360.33 C168.64,370.07 195.88,372.55 227.36,368.41 ZM 229.50 325.13 C251.93,320.52 268.48,313.27 287.00,299.95 C302.08,289.10 313.13,277.90 322.84,263.63 C340.84,237.16 348.95,210.77 348.98,178.50 C349.00,154.70 344.85,136.04 334.87,115.00 C328.72,102.05 325.55,96.98 316.40,85.50 C282.20,42.59 227.36,22.24 173.38,32.43 C141.53,38.45 117.80,51.01 94.97,73.93 C81.04,87.91 74.49,97.01 66.47,113.50 C60.22,126.35 57.06,135.49 53.85,150.00 C50.52,165.00 50.52,191.68 53.83,207.00 C61.45,242.21 78.55,271.27 104.25,292.65 C126.21,310.94 149.88,321.79 177.00,326.01 C181.12,326.65 185.18,327.34 186.00,327.54 C190.68,328.65 220.38,327.01 229.50,325.13 ZM 21.45 257.53 C20.65,255.62 20.00,253.60 20.00,253.03 C20.00,252.38 24.57,252.00 32.50,252.00 C39.38,252.00 45.00,251.77 45.00,251.48 C45.00,251.19 42.93,246.84 40.41,241.81 L 35.81 232.67 L 32.12 239.29 C30.09,242.93 28.17,246.16 27.86,246.48 C27.54,246.79 23.73,245.53 19.39,243.67 C6.05,237.96 6.27,237.68 14.60,249.95 C18.72,256.03 22.28,261.00 22.50,261.00 C22.72,261.00 22.25,259.44 21.45,257.53 ZM 386.92 247.67 C389.81,243.36 392.01,239.68 391.82,239.49 C391.63,239.30 387.24,240.91 382.07,243.07 C376.91,245.24 372.43,246.76 372.12,246.46 C371.82,246.15 369.91,242.93 367.88,239.29 L 364.19 232.67 L 359.59 241.81 C357.07,246.84 355.00,251.19 355.00,251.48 C355.00,251.77 360.67,252.00 367.61,252.00 L 380.22 252.00 L 379.61 254.41 C379.28,255.73 378.71,257.64 378.35,258.66 C377.44,261.19 380.42,257.38 386.92,247.67 ZM 191.22 313.44 C187.77,311.03 188.81,303.00 192.57,303.00 C193.74,303.00 193.84,303.42 193.04,304.93 C191.55,307.72 191.76,311.56 193.49,312.99 C194.69,313.99 195.09,313.93 195.58,312.66 C195.91,311.80 195.89,310.62 195.53,310.05 C195.15,309.43 195.86,309.00 197.27,309.00 C199.35,309.00 199.60,309.38 199.21,312.00 C198.85,314.47 198.30,315.00 196.11,315.00 C194.64,315.00 192.44,314.30 191.22,313.44 ZM 207.00 313.00 C204.28,310.28 204.39,305.54 207.22,303.56 C210.21,301.46 212.60,301.60 215.00,304.00 C217.68,306.68 217.52,309.57 214.55,312.55 C211.57,315.52 209.64,315.64 207.00,313.00 ZM 213.20 311.25 C213.40,310.29 213.38,308.26 213.16,306.75 C212.86,304.63 212.23,304.00 210.39,304.00 C208.29,304.00 208.00,304.46 208.00,307.83 C208.00,309.94 208.30,311.97 208.67,312.33 C209.98,313.65 212.86,312.96 213.20,311.25 ZM 181.66 313.34 C181.20,312.88 180.20,311.01 179.43,309.18 C177.88,305.46 175.53,305.78 176.27,309.62 C176.57,311.21 176.26,312.00 175.32,312.00 C174.22,312.00 174.08,311.16 174.66,308.25 C175.07,306.19 175.43,303.49 175.45,302.25 C175.48,301.01 176.03,300.00 176.68,300.00 C178.31,300.00 181.00,302.84 181.00,304.57 C181.00,305.36 181.45,306.00 182.00,306.00 C182.55,306.00 183.00,305.10 183.00,304.00 C183.00,302.86 183.67,302.00 184.56,302.00 C185.46,302.00 185.82,302.48 185.42,303.12 C185.04,303.74 184.23,306.48 183.62,309.21 C183.00,311.94 182.12,313.80 181.66,313.34 ZM 222.23 312.44 C222.54,312.13 222.23,309.47 221.55,306.52 L 220.30 301.17 L 223.69 300.53 C228.30,299.67 230.88,300.66 231.61,303.57 C232.64,307.69 231.28,310.71 227.86,311.90 C224.51,313.07 221.29,313.38 222.23,312.44 ZM 228.84 308.59 C229.47,305.32 228.05,302.00 226.01,302.00 C224.35,302.00 224.14,302.50 224.61,305.25 C224.92,307.04 225.36,309.10 225.59,309.83 C226.15,311.63 228.42,310.76 228.84,308.59 ZM 161.82 308.86 L 159.14 307.88 L 160.67 302.69 C162.48,296.56 162.47,296.58 164.50,297.36 C165.78,297.85 165.87,298.38 164.97,300.06 C164.02,301.83 164.16,302.23 165.93,302.69 C168.69,303.41 168.59,305.04 165.79,304.74 C164.37,304.58 163.45,305.12 163.22,306.25 C162.93,307.62 163.53,308.00 165.99,308.00 C167.82,308.00 168.86,308.41 168.50,309.00 C167.75,310.22 165.39,310.17 161.82,308.86 ZM 237.39 304.75 C236.81,302.41 236.14,299.89 235.91,299.14 C235.66,298.30 236.90,297.28 239.19,296.46 C242.31,295.35 243.06,295.37 244.06,296.57 C245.05,297.77 244.63,298.00 241.51,298.00 L 237.77 298.00 L 239.41 300.50 C240.31,301.88 240.76,303.00 240.41,303.00 C240.06,303.00 240.48,304.08 241.35,305.41 C242.76,307.57 242.77,307.87 241.38,308.41 C238.78,309.41 238.49,309.14 237.39,304.75 ZM 150.26 304.78 C148.23,303.81 148.18,303.59 149.67,302.50 C150.65,301.78 151.07,300.62 150.69,299.64 C149.77,297.25 148.09,297.63 147.01,300.48 C146.37,302.16 145.56,302.77 144.49,302.36 C143.62,302.03 143.05,301.47 143.21,301.12 C143.37,300.77 144.35,298.36 145.39,295.75 C147.27,291.01 148.31,290.27 150.83,291.88 C151.91,292.56 151.86,292.84 150.58,293.33 C149.71,293.66 149.00,294.58 149.00,295.36 C149.00,297.75 151.75,298.01 153.24,295.76 C154.24,294.26 155.19,293.86 156.54,294.38 C157.76,294.85 158.04,295.36 157.33,295.80 C155.82,296.76 152.88,304.00 153.57,305.11 C154.28,306.26 153.08,306.14 150.26,304.78 ZM 252.67 303.33 C251.52,302.18 251.94,301.00 253.50,301.00 C254.32,301.00 255.00,301.67 255.00,302.50 C255.00,304.06 253.82,304.48 252.67,303.33 ZM 133.76 296.94 C130.58,295.06 129.79,292.31 131.49,289.02 C133.42,285.29 137.14,284.21 140.51,286.41 C143.09,288.11 143.64,289.49 142.11,290.43 C141.63,290.73 140.99,290.08 140.71,288.99 C139.98,286.21 137.53,286.51 135.03,289.68 C132.27,293.20 132.77,295.51 136.29,295.46 C137.80,295.44 138.87,295.89 138.68,296.46 C138.19,297.92 135.82,298.15 133.76,296.94 ZM 266.31 295.75 C266.27,293.75 261.92,287.00 260.65,286.98 C259.11,286.96 262.15,285.03 263.75,285.02 C264.44,285.01 265.00,285.50 265.00,286.11 C265.00,286.71 266.32,288.88 267.93,290.91 C270.74,294.46 270.78,294.65 268.94,295.80 C266.55,297.30 266.34,297.29 266.31,295.75 ZM 119.20 286.80 C118.54,286.14 118.00,284.93 118.00,284.11 C118.00,281.78 122.33,276.01 124.08,276.01 C126.99,275.99 126.92,277.20 123.86,279.78 C121.49,281.77 120.91,282.95 121.24,285.16 C121.69,288.22 121.10,288.70 119.20,286.80 ZM 182.00 286.52 C167.94,284.27 152.78,278.17 139.13,269.28 C131.33,264.19 114.30,246.92 108.78,238.50 C87.83,206.48 85.42,163.86 102.64,129.69 C115.76,103.66 139.58,83.46 167.50,74.67 C187.74,68.29 214.31,68.50 235.00,75.19 C261.77,83.85 284.96,103.94 297.76,129.58 C305.92,145.92 308.96,159.19 308.96,178.50 C308.96,192.00 307.72,201.00 304.41,211.47 C293.78,245.12 267.04,272.14 233.50,283.12 C219.54,287.70 198.15,289.11 182.00,286.52 ZM 188.14 260.25 C192.35,251.77 201.18,248.62 209.58,252.61 C213.05,254.25 217.00,259.45 217.00,262.37 C217.00,264.37 221.80,264.47 227.00,262.57 C230.40,261.33 230.49,261.16 230.17,256.63 C229.20,243.16 243.60,234.17 254.40,241.50 C256.43,242.88 258.46,244.00 258.91,244.00 C259.36,244.00 261.84,241.74 264.43,238.97 L 269.13 233.95 L 266.57 230.90 C263.38,227.11 262.58,224.06 263.40,218.88 C264.67,210.96 271.79,205.54 280.14,206.15 C282.21,206.30 284.19,206.15 284.52,205.81 C285.62,204.72 288.11,192.54 287.29,192.25 C282.94,190.70 278.23,186.87 276.69,183.62 C273.65,177.17 276.46,170.85 284.09,166.95 C286.24,165.86 288.00,164.72 288.00,164.44 C288.00,164.15 287.27,161.02 286.39,157.49 L 284.77 151.07 L 280.53 151.65 C266.84,153.53 257.71,136.62 266.67,125.98 L 269.27 122.89 L 264.05 117.86 C259.37,113.35 258.67,112.99 257.17,114.30 C251.43,119.32 244.67,120.20 238.52,116.71 C232.75,113.44 229.78,107.85 230.37,101.35 L 230.84 96.20 L 226.47 95.10 C219.14,93.25 217.53,93.59 216.46,97.22 C215.07,101.89 207.97,107.00 202.87,107.00 C200.69,107.00 197.64,106.35 196.10,105.55 C192.33,103.60 187.00,97.40 187.00,94.97 C187.00,92.61 184.73,92.46 177.50,94.34 L 172.50 95.64 L 172.83 100.70 C173.07,104.30 172.59,106.88 171.16,109.69 C168.68,114.54 167.48,115.57 162.03,117.49 C156.85,119.32 151.66,118.26 147.15,114.47 C145.53,113.11 143.81,112.00 143.32,112.00 C142.83,112.00 140.29,114.16 137.69,116.81 L 132.96 121.61 L 135.40 123.91 C138.75,127.05 140.47,134.54 139.06,139.79 C137.87,144.21 132.61,149.56 128.43,150.61 C127.03,150.96 123.68,150.95 120.98,150.59 L 116.07 149.94 L 114.47 155.72 C113.59,158.90 112.69,162.05 112.47,162.72 C112.25,163.44 113.63,164.36 115.79,164.95 C123.10,166.92 127.00,171.89 127.00,179.22 C126.99,185.18 120.05,192.98 114.75,193.00 C112.48,193.00 112.51,196.94 114.83,203.00 L 116.56 207.50 L 123.03 207.21 C128.11,206.98 130.19,207.34 132.70,208.91 C140.56,213.82 141.92,226.03 135.39,233.04 L 133.02 235.59 L 138.48 240.98 L 143.93 246.36 L 146.35 243.76 C151.63,238.06 161.37,237.75 167.46,243.10 C171.67,246.79 173.42,251.73 172.55,257.48 C171.92,261.71 171.98,261.84 175.20,262.84 C184.69,265.80 185.47,265.64 188.14,260.25 ZM 276.50 285.00 C275.40,284.53 273.23,283.87 271.68,283.53 C267.21,282.57 269.04,280.46 274.11,280.75 L 278.50 280.99 L 276.23 279.07 C274.76,277.82 274.35,276.90 275.06,276.46 C276.12,275.81 277.41,277.18 281.35,283.19 C283.20,286.00 283.20,286.00 280.85,285.93 C279.56,285.90 277.60,285.48 276.50,285.00 ZM 284.36 276.27 L 280.22 271.99 L 283.19 269.49 C286.77,266.48 289.33,266.33 292.00,269.00 C294.78,271.78 294.50,275.18 291.25,278.08 L 288.50 280.54 L 284.36 276.27 ZM 291.53 275.96 C292.31,274.68 289.46,270.11 287.37,269.31 C286.54,268.99 285.36,269.24 284.74,269.86 C283.90,270.70 284.36,271.76 286.49,273.99 C289.59,277.23 290.52,277.59 291.53,275.96 ZM 110.53 279.05 C110.20,278.52 110.23,276.95 110.58,275.55 C111.27,272.81 109.37,271.86 108.38,274.45 C107.96,275.55 107.40,275.65 106.14,274.86 C104.66,273.93 104.98,273.28 108.86,269.40 C111.28,266.98 113.41,265.00 113.58,265.00 C113.76,265.00 115.05,266.52 116.47,268.37 C119.42,272.24 118.97,275.00 115.39,275.00 C113.51,275.00 113.00,275.53 113.00,277.50 C113.00,280.00 111.64,280.85 110.53,279.05 ZM 116.00 270.44 C116.00,268.74 113.42,268.51 112.43,270.11 C111.68,271.33 113.92,273.17 115.20,272.38 C115.64,272.10 116.00,271.23 116.00,270.44 ZM 98.95 266.90 C98.39,265.86 98.28,265.00 98.71,264.99 C99.15,264.99 101.23,263.34 103.35,261.34 C106.40,258.44 107.37,257.98 108.08,259.10 C109.19,260.86 109.24,262.00 108.20,262.00 C107.75,262.00 105.72,263.53 103.68,265.40 C100.19,268.59 99.90,268.69 98.95,266.90 ZM 296.00 265.45 C294.08,263.56 291.84,262.01 291.04,262.01 C289.82,262.00 289.85,261.72 291.20,260.37 C292.72,258.86 293.18,259.02 297.43,262.50 C301.07,265.48 301.79,266.55 300.89,267.63 C300.27,268.38 299.70,268.98 299.63,268.95 C299.56,268.92 297.92,267.35 296.00,265.45 ZM 302.25 256.50 C299.00,252.09 298.24,250.00 299.86,250.00 C301.60,250.00 311.36,252.03 311.82,252.48 C312.83,253.49 309.82,255.77 308.08,255.31 C305.83,254.72 304.34,256.74 305.89,258.29 C306.50,258.90 307.00,259.76 307.00,260.20 C307.00,261.99 305.33,260.69 302.25,256.50 ZM 91.25 256.85 C90.37,255.97 91.23,254.97 94.76,252.74 C98.96,250.07 99.25,249.65 97.68,248.51 C96.41,247.58 96.28,247.11 97.22,246.77 C97.92,246.51 99.52,247.55 100.78,249.09 L 103.05 251.88 L 99.57 253.53 C97.66,254.44 95.57,255.82 94.92,256.59 C93.50,258.30 92.75,258.35 91.25,256.85 ZM 80.49 239.18 C80.76,238.91 80.61,238.19 80.15,237.59 C79.66,236.95 80.05,235.81 81.09,234.82 C82.67,233.32 83.00,233.30 84.12,234.65 C86.47,237.47 85.90,239.67 82.82,239.67 C81.27,239.67 80.22,239.45 80.49,239.18 ZM 312.81 238.25 C312.57,237.29 313.14,235.77 314.07,234.87 C315.63,233.36 315.87,233.36 317.15,234.87 C319.16,237.23 318.30,240.00 315.54,240.00 C314.17,240.00 313.06,239.29 312.81,238.25 ZM 68.68 218.35 C66.91,216.57 68.15,214.13 71.17,213.46 L 74.34 212.77 L 71.92 210.90 C70.59,209.87 68.97,209.22 68.33,209.45 C67.69,209.69 66.90,209.19 66.58,208.36 C65.40,205.27 66.08,204.92 69.08,207.06 L 72.16 209.25 L 76.12 205.38 C79.39,202.19 80.25,201.77 81.03,203.01 C82.57,205.46 82.14,207.00 79.64,207.95 C76.64,209.09 75.34,212.00 77.83,212.00 C78.80,212.00 80.13,211.47 80.77,210.83 C81.95,209.65 81.94,209.62 83.48,214.54 C83.76,215.41 83.43,215.98 82.73,215.86 C80.49,215.45 70.51,217.22 69.93,218.14 C69.62,218.63 69.06,218.72 68.68,218.35 ZM 320.08 217.60 C319.35,216.72 318.14,216.00 317.38,216.00 C315.18,216.00 315.64,209.36 318.00,207.00 C322.39,202.61 332.00,205.69 332.00,211.49 C332.00,214.31 329.77,218.98 328.42,218.99 C326.26,219.01 326.06,217.65 328.01,216.28 C330.94,214.23 330.48,211.30 326.93,209.47 C322.81,207.33 318.50,207.86 318.50,210.50 C318.50,211.93 319.14,212.48 320.75,212.42 C323.09,212.34 323.51,213.84 322.13,217.35 C321.47,219.02 321.28,219.05 320.08,217.60 ZM 327.08 198.59 C323.54,197.97 320.48,196.95 320.28,196.33 C320.07,195.70 322.51,193.95 325.70,192.43 L 331.50 189.67 L 327.00 188.96 C324.52,188.57 322.16,188.45 321.75,188.69 C321.34,188.92 321.00,188.18 321.00,187.02 C321.00,185.31 321.33,185.11 322.83,185.91 C323.83,186.44 327.20,187.02 330.32,187.19 C335.51,187.47 335.99,187.70 336.00,189.83 C336.00,191.62 335.08,192.52 332.00,193.73 C327.07,195.67 326.79,197.36 331.50,196.81 C334.35,196.48 335.00,196.73 335.00,198.20 C335.00,199.19 334.66,199.94 334.25,199.86 C333.84,199.78 330.61,199.21 327.08,198.59 ZM 77.12 195.65 C75.91,194.18 76.60,193.00 78.67,193.00 C80.16,193.00 80.49,195.58 79.11,196.43 C78.63,196.73 77.73,196.38 77.12,195.65 ZM 66.20 185.43 C63.48,183.52 63.04,176.58 65.58,175.61 C68.76,174.39 69.30,175.06 67.05,177.45 C65.72,178.86 65.00,180.56 65.34,181.45 C66.32,183.99 68.01,183.22 69.55,179.54 C71.91,173.88 76.69,172.68 79.07,177.13 C80.39,179.60 79.23,185.70 77.29,186.44 C76.15,186.88 75.96,186.58 76.52,185.26 C77.97,181.81 78.17,179.22 77.05,178.53 C75.54,177.60 73.20,179.63 72.81,182.21 C72.64,183.34 71.58,184.88 70.45,185.62 C68.71,186.77 68.08,186.74 66.20,185.43 ZM 321.00 176.34 C321.00,173.43 321.27,172.87 322.20,173.80 C323.83,175.43 334.68,175.38 335.34,173.75 C335.62,173.06 335.88,173.85 335.92,175.50 L 336.00 178.50 L 330.60 178.16 C327.63,177.98 324.25,178.33 323.10,178.95 C321.14,179.99 321.00,179.82 321.00,176.34 ZM 77.00 167.00 C77.00,165.49 77.52,164.95 78.75,165.19 C79.71,165.38 80.50,166.19 80.50,167.00 C80.50,167.81 79.71,168.62 78.75,168.81 C77.52,169.05 77.00,168.51 77.00,167.00 ZM 321.00 165.82 C321.00,164.57 322.22,162.60 323.75,161.38 C326.95,158.82 326.41,157.51 322.72,158.91 C320.73,159.67 320.04,159.55 319.59,158.36 C318.46,155.44 318.93,153.84 320.75,154.42 C321.71,154.72 324.98,154.57 328.00,154.09 C331.24,153.57 333.73,153.58 334.06,154.11 C334.37,154.61 334.73,156.97 334.85,159.35 C335.14,164.90 333.16,166.96 329.45,164.97 C327.25,163.80 326.63,163.90 323.99,165.85 L 321.00 168.06 L 321.00 165.82 ZM 332.82 159.17 C333.15,156.94 332.34,156.55 329.60,157.60 C328.38,158.07 328.27,158.63 329.09,160.16 C330.39,162.60 332.39,162.07 332.82,159.17 ZM 79.45 159.14 C78.00,157.82 69.04,155.86 67.84,156.60 C66.35,157.52 67.79,149.13 69.62,146.25 C70.40,145.01 71.68,144.00 72.45,144.00 C74.01,144.00 77.00,146.65 77.00,148.02 C77.00,148.50 78.62,148.22 80.61,147.39 C84.78,145.65 85.05,145.75 83.95,148.66 C83.46,149.94 81.89,151.08 80.07,151.49 C78.38,151.86 77.00,152.53 77.00,152.97 C77.00,154.08 79.96,155.14 81.09,154.44 C81.59,154.13 82.00,155.26 82.00,156.94 C82.00,160.03 81.19,160.72 79.45,159.14 ZM 73.82 150.76 C73.64,149.53 72.77,148.38 71.88,148.21 C69.83,147.82 68.47,151.05 70.22,152.15 C72.60,153.67 74.15,153.07 73.82,150.76 ZM 318.77 148.31 C317.77,148.05 316.59,146.19 315.96,143.87 C315.37,141.67 314.67,139.30 314.40,138.59 C314.07,137.74 314.86,137.28 316.70,137.22 C318.24,137.17 321.24,136.40 323.37,135.50 C328.08,133.52 329.54,133.97 330.29,137.66 C330.60,139.22 331.15,141.25 331.51,142.17 C331.93,143.27 331.47,144.21 330.17,144.91 C328.32,145.90 328.23,145.71 328.74,141.87 C329.27,137.92 329.21,137.80 326.90,138.51 C323.53,139.55 323.46,139.74 325.49,141.99 C326.49,143.10 326.83,144.00 326.24,144.00 C325.65,144.00 324.48,144.26 323.65,144.58 C322.54,145.01 322.28,144.64 322.66,143.19 C323.29,140.79 322.07,139.91 319.17,140.66 C316.36,141.40 316.43,142.52 319.50,145.59 C322.94,149.03 322.85,149.38 318.77,148.31 ZM 83.50 140.00 C82.66,138.65 83.79,137.00 85.56,137.00 C86.35,137.00 87.00,137.90 87.00,139.00 C87.00,141.07 84.59,141.76 83.50,140.00 ZM 312.16 131.10 C311.58,130.74 310.21,128.45 309.12,126.02 L 307.14 121.59 L 310.49 120.44 C312.34,119.81 315.40,118.37 317.30,117.25 L 320.76 115.21 L 323.00 120.00 C325.11,124.51 325.09,127.00 322.94,127.00 C322.42,127.00 322.00,125.39 322.00,123.43 C322.00,120.19 321.79,119.93 319.75,120.56 C316.41,121.58 316.28,122.00 318.69,123.95 L 320.89 125.73 L 318.44 126.84 C316.21,127.86 316.00,127.74 316.00,125.48 C316.00,122.93 315.32,122.56 312.58,123.61 C310.09,124.56 310.73,126.86 314.05,128.88 C316.75,130.52 316.88,130.80 315.16,131.25 C314.09,131.53 312.74,131.46 312.16,131.10 ZM 85.69 119.97 C81.86,116.96 81.45,114.43 84.16,110.45 C86.43,107.12 87.96,106.29 89.33,107.66 C89.69,108.02 88.98,108.82 87.74,109.44 C84.13,111.23 84.33,114.62 88.18,116.97 C92.26,119.45 94.60,119.54 95.88,117.26 C96.41,116.30 97.17,115.84 97.56,116.23 C97.95,116.62 97.52,118.08 96.61,119.47 C94.53,122.65 89.40,122.89 85.69,119.97 ZM 303.01 112.75 C303.01,111.51 303.91,109.15 305.00,107.50 C307.92,103.10 307.62,101.57 304.25,103.66 C302.74,104.59 300.92,106.06 300.21,106.93 C299.10,108.28 298.80,108.29 298.03,107.04 C297.36,105.97 297.90,105.22 300.12,104.14 C301.77,103.35 304.50,101.40 306.18,99.83 C308.58,97.59 309.55,97.21 310.63,98.10 C312.50,99.66 312.36,101.38 309.95,106.09 L 307.91 110.10 L 310.86 108.57 C312.49,107.73 313.99,106.53 314.20,105.91 C314.44,105.18 315.05,105.36 315.91,106.39 C316.96,107.66 316.97,108.00 315.98,108.00 C315.28,108.00 312.33,109.57 309.43,111.50 C306.53,113.43 303.90,115.00 303.58,115.00 C303.26,115.00 303.00,113.99 303.01,112.75 ZM 95.92 104.08 C94.32,102.47 93.00,100.18 93.00,99.00 C93.00,96.53 98.10,91.00 100.38,91.00 C103.21,91.00 106.77,93.21 107.89,95.66 C109.51,99.20 109.26,101.40 106.93,104.37 C104.06,108.01 99.74,107.90 95.92,104.08 ZM 106.80 101.38 C107.00,100.00 106.02,98.35 103.98,96.63 C100.40,93.62 97.83,93.29 95.91,95.61 C94.75,97.00 95.08,97.68 98.34,100.67 C102.58,104.56 106.30,104.87 106.80,101.38 ZM 290.98 98.48 C290.28,97.64 289.89,96.82 290.11,96.66 C295.63,92.59 300.00,88.43 300.00,87.26 C300.00,86.01 300.27,85.98 301.55,87.05 C303.82,88.92 305.40,92.09 303.77,91.48 C303.07,91.22 300.48,93.01 298.00,95.46 C292.91,100.49 292.72,100.57 290.98,98.48 ZM 110.40 88.27 C105.50,83.23 105.38,82.97 107.16,81.35 C108.18,80.43 109.14,79.86 109.29,80.09 C109.44,80.32 111.29,82.66 113.38,85.29 C116.45,89.14 117.47,89.85 118.60,88.92 C119.37,88.28 120.00,86.66 120.00,85.32 C120.00,83.95 120.44,83.15 121.00,83.50 C123.14,84.82 121.97,88.78 118.75,91.13 L 115.50 93.50 L 110.40 88.27 ZM 284.34 90.77 C277.18,84.92 276.57,82.85 280.59,78.08 C284.01,74.01 288.84,73.84 292.38,77.65 C294.41,79.85 294.63,80.62 293.67,82.18 C292.58,83.93 292.46,83.88 292.00,81.39 C291.73,79.92 290.69,78.22 289.70,77.61 C288.19,76.68 287.32,77.12 284.38,80.30 C280.70,84.30 280.29,87.24 283.33,87.83 C284.50,88.05 285.34,87.43 285.69,86.09 C286.35,83.54 287.22,83.46 289.22,85.75 C290.62,87.35 290.52,87.69 288.13,89.61 C286.38,91.02 285.11,91.40 284.34,90.77 ZM 127.00 82.14 C127.00,81.03 126.62,79.89 126.17,79.60 C125.71,79.32 124.07,77.27 122.54,75.05 C120.23,71.73 119.96,70.75 120.99,69.51 C122.35,67.87 124.15,67.46 123.75,68.88 C123.44,69.97 130.07,79.00 131.19,79.00 C131.63,79.00 132.00,78.64 132.00,78.19 C132.00,77.75 132.66,76.51 133.47,75.44 C134.91,73.54 134.94,73.55 134.97,75.67 C134.99,77.02 133.50,79.02 131.00,81.00 C127.36,83.88 127.00,83.99 127.00,82.14 ZM 268.80 72.78 L 268.50 66.56 L 266.58 69.50 C265.53,71.12 264.67,73.01 264.67,73.72 C264.67,75.43 263.53,75.34 262.00,73.50 C261.26,72.61 261.18,72.00 261.78,72.00 C263.31,72.00 269.13,62.79 268.56,61.29 C267.93,59.65 269.01,59.69 271.25,61.39 C272.47,62.32 273.00,64.11 273.00,67.36 C273.00,72.69 274.24,73.33 276.16,69.00 C276.89,67.35 277.80,66.00 278.19,66.00 C279.26,66.00 280.11,67.79 279.21,68.16 C278.77,68.35 276.89,70.86 275.04,73.75 C270.52,80.78 269.17,80.57 268.80,72.78 ZM 140.38 73.19 C141.06,72.09 136.17,62.00 134.96,62.00 C134.43,62.00 134.00,61.63 134.00,61.17 C134.00,59.86 143.67,55.68 144.91,56.45 C146.61,57.49 145.19,59.00 142.50,59.00 C139.33,59.00 138.37,60.80 140.44,62.85 C142.01,64.39 142.21,64.38 143.42,62.75 C145.00,60.63 146.00,60.50 146.00,62.43 C146.00,63.22 145.10,64.15 144.00,64.50 C141.61,65.26 141.52,65.99 143.50,68.56 C144.96,70.45 145.05,70.43 147.45,67.75 C150.37,64.48 151.00,64.34 151.00,66.98 C151.00,68.36 149.47,69.74 146.03,71.48 C140.78,74.14 139.57,74.51 140.38,73.19 ZM 250.00 67.32 C246.28,65.68 244.95,64.65 245.83,64.10 C247.47,63.09 252.04,53.37 251.25,52.58 C250.06,51.40 252.97,52.06 257.52,54.01 C260.98,55.49 262.05,56.43 261.60,57.59 C261.27,58.46 261.00,59.40 261.00,59.69 C261.00,59.98 260.17,59.20 259.16,57.94 C257.16,55.47 254.00,55.80 254.00,58.47 C254.00,59.88 255.23,60.47 257.37,60.08 C257.85,59.99 257.97,60.65 257.62,61.54 C257.28,62.43 257.00,63.42 257.00,63.74 C257.00,64.05 256.07,63.47 254.94,62.44 C253.17,60.85 252.74,60.79 251.94,62.04 C250.21,64.74 251.39,66.48 255.30,67.00 C258.57,67.43 258.83,67.65 257.27,68.61 C255.85,69.49 254.29,69.22 250.00,67.32 ZM 158.21 63.95 C155.12,62.71 152.71,56.89 153.94,53.64 C155.01,50.85 155.88,50.18 160.03,48.99 C162.38,48.32 163.19,48.49 163.90,49.82 C164.67,51.25 164.26,51.50 161.15,51.50 C158.00,51.50 157.46,51.84 157.23,54.00 C156.87,57.29 160.55,63.23 162.69,62.82 C165.02,62.37 165.36,60.51 163.48,58.62 C162.00,57.15 162.08,56.92 164.44,55.85 C167.43,54.48 167.54,54.55 168.27,58.50 C168.76,61.15 168.42,61.70 165.37,63.25 C161.49,65.22 161.38,65.23 158.21,63.95 ZM 174.65 58.23 C175.10,56.52 173.93,50.19 172.58,46.92 C172.05,45.66 172.99,45.15 177.34,44.37 C182.03,43.52 182.90,43.61 183.82,45.09 C184.78,46.62 184.47,46.74 180.94,46.27 C177.45,45.80 177.00,45.97 177.00,47.81 C177.00,50.61 179.03,51.69 180.50,49.67 C181.84,47.83 183.00,48.46 183.00,51.03 C183.00,52.30 182.37,52.60 180.50,52.24 C177.68,51.71 177.16,53.47 179.28,56.37 C180.50,58.03 180.71,58.02 183.19,56.06 C186.54,53.43 187.13,53.46 186.11,56.23 C185.24,58.60 182.51,59.74 177.34,59.90 C174.79,59.98 174.28,59.66 174.65,58.23 ZM 221.37 57.25 C223.32,50.55 224.06,46.60 223.60,45.40 C222.95,43.70 224.64,43.63 230.56,45.12 C233.13,45.77 235.00,46.82 235.00,47.62 C235.00,49.30 234.52,49.34 232.12,47.84 C229.83,46.41 227.00,47.37 227.00,49.59 C227.00,50.80 227.65,51.11 229.50,50.76 C231.42,50.39 232.00,50.70 232.00,52.08 C232.00,53.07 231.55,54.16 231.00,54.50 C230.45,54.84 230.00,54.64 230.00,54.06 C230.00,53.48 229.09,53.00 227.98,53.00 C226.52,53.00 225.78,53.85 225.35,56.00 C224.93,58.10 224.17,59.00 222.81,59.00 C221.43,59.00 221.01,58.49 221.37,57.25 ZM 204.76 56.43 C200.44,54.09 199.81,47.33 203.57,43.57 C206.01,41.13 212.55,41.52 214.44,44.22 C216.82,47.61 216.42,52.67 213.55,55.55 C210.75,58.34 208.67,58.55 204.76,56.43 ZM 211.02 53.96 C212.62,50.98 211.84,44.91 209.69,43.60 C207.23,42.10 205.00,45.15 205.00,49.99 C205.00,55.61 208.80,58.11 211.02,53.96 ZM 202.00 205.58 C202.00,185.86 202.36,175.00 203.00,175.00 C203.55,175.00 204.00,175.97 204.00,177.15 C204.00,179.18 204.11,179.21 205.83,177.65 C211.24,172.76 213.97,178.25 214.07,194.22 L 214.14 205.50 L 216.07 201.16 C217.13,198.77 218.92,192.02 220.06,186.16 C221.19,180.30 222.78,173.14 223.59,170.25 C224.85,165.73 225.40,165.00 227.53,165.00 C229.61,165.00 230.00,165.48 230.00,168.00 C230.00,170.88 230.17,171.00 234.44,171.00 C238.85,171.00 238.88,171.03 239.19,174.75 C239.50,178.48 239.52,178.50 243.77,178.31 L 248.03 178.12 L 247.77 203.24 L 247.50 228.35 L 239.20 228.67 C233.91,228.87 228.39,229.83 223.95,231.32 C220.13,232.60 217.00,233.35 217.00,232.98 C217.00,231.27 231.86,226.27 239.66,225.35 L 245.00 224.72 L 245.00 203.36 L 245.00 182.00 L 242.00 182.00 L 239.00 182.00 L 239.00 201.80 L 239.00 221.59 L 232.25 222.74 C228.19,223.43 222.37,225.48 217.64,227.89 C211.96,230.79 210.30,231.33 211.64,229.84 C215.29,225.81 224.30,221.53 233.25,219.56 L 236.00 218.96 L 236.00 196.48 L 236.00 174.00 L 233.00 174.00 L 230.00 174.00 L 230.00 194.53 C230.00,213.20 229.84,215.12 228.25,215.65 C223.51,217.23 214.20,222.14 211.84,224.31 C210.37,225.66 207.56,228.87 205.59,231.45 L 202.00 236.15 L 202.00 205.58 ZM 195.07 231.42 C191.23,225.78 184.50,220.44 177.47,217.45 L 171.00 214.70 L 171.08 197.60 L 171.16 180.50 L 173.41 187.50 C175.60,194.35 178.85,201.53 179.45,200.84 C179.61,200.65 179.33,197.35 178.82,193.49 C177.65,184.66 179.23,178.68 182.87,178.17 C184.17,177.98 185.72,178.32 186.32,178.92 C188.53,181.13 189.08,179.84 188.42,174.00 C188.05,170.70 188.08,168.00 188.50,168.00 C188.92,168.00 190.78,168.94 192.63,170.08 C199.11,174.08 199.00,173.49 199.00,205.72 C199.00,221.83 198.66,235.00 198.25,234.99 C197.84,234.99 196.41,233.38 195.07,231.42 ZM 175.50 230.85 C171.89,229.68 166.22,228.83 161.25,228.71 L 153.00 228.52 L 152.46 225.51 C152.16,223.85 152.05,212.60 152.21,200.50 L 152.50 178.50 L 156.75 178.82 L 161.00 179.13 L 161.00 175.07 L 161.00 171.00 L 165.00 171.00 C167.80,171.00 169.00,171.43 169.00,172.43 C169.00,173.22 168.13,174.00 167.06,174.18 C165.23,174.48 165.09,175.71 164.62,196.25 C164.14,216.77 164.22,218.05 165.99,219.00 C167.02,219.55 168.56,220.00 169.40,220.00 C174.21,220.00 192.31,230.02 190.60,231.74 C190.28,232.06 189.21,231.59 188.23,230.71 C185.13,227.90 175.33,223.93 168.29,222.64 L 161.50 221.38 L 161.23 201.69 L 160.96 182.00 L 158.48 182.00 L 156.00 182.00 L 156.00 203.50 L 156.00 225.00 L 158.84 225.00 C163.03,225.00 176.29,228.58 180.68,230.90 C185.45,233.41 183.33,233.40 175.50,230.85 Z" fill="rgb(252,253,252)"/>
</g>
</svg>