<?xml version="1.0" encoding="UTF-8"?>
<svg version="1.1" xmlns="http://www.w3.org/2000/svg" width="330" height="260">
<path d="M0 0 C29 0 29 0 37.8125 6.5625 C41.1953125 10.4609375 41.1953125 10.4609375 42.66894531 12.34277344 C44.31399812 14.39094264 46.15457287 16.03013371 48.1875 17.6875 C51.47604802 20.51950339 54.68126606 23.43704453 57.875 26.375 C63.21629959 31.28799177 68.59764361 36.15414625 74 41 C75.85454125 42.66624985 77.70871529 44.3329085 79.5625 46 C80.38878906 46.7425 81.21507813 47.485 82.06640625 48.25 C83.06016964 49.14940606 84.05224029 50.05224029 85 51 C85.33 34.17 85.66 17.34 86 0 C109.81571968 -0.16043524 109.81571968 -0.16043524 120.0546875 -0.1953125 C127.01086808 -0.21912077 133.96683583 -0.24712748 140.92285156 -0.30175781 C146.53796708 -0.34557556 152.152854 -0.36921224 157.76812744 -0.37950897 C159.89849439 -0.38683637 162.02885041 -0.40114279 164.15911865 -0.42292023 C175.58666458 -0.5349777 185.843268 -0.17983236 196.80200195 3.25469971 C200.84652927 4.19728546 203.41493335 3.66087711 207.10546875 1.89453125 C210.98468746 0.06290015 215.00764448 -0.128798 219.24243164 -0.16113281 C220.26442154 -0.17074036 221.28641144 -0.1803479 222.33937073 -0.19024658 C223.98315956 -0.1966214 223.98315956 -0.1966214 225.66015625 -0.203125 C226.80101181 -0.20882507 227.94186737 -0.21452515 229.11729431 -0.22039795 C231.532207 -0.22983664 233.9471325 -0.23637743 236.36206055 -0.24023438 C240.02481126 -0.24990054 243.68699118 -0.28091932 247.34960938 -0.3125 C249.70312169 -0.31903467 252.056638 -0.32428331 254.41015625 -0.328125 C256.03269066 -0.3466452 256.03269066 -0.3466452 257.68800354 -0.36553955 C274.57328935 -0.3170034 288.41882111 5.5045421 300.37109375 17.26953125 C312.37955422 29.74191442 317.51204529 44.05457238 317.34057617 61.2644043 C317.34101425 62.43643906 317.34145233 63.60847382 317.34190369 64.81602478 C317.33983001 68.65226472 317.31656573 72.48805607 317.29296875 76.32421875 C317.28736774 78.99893432 317.28295228 81.67362571 317.28010559 84.3483429 C317.27082529 90.64501151 317.2462667 96.94152165 317.21605712 103.23812085 C317.18238712 110.41354949 317.16599562 117.58898616 317.15097082 124.76447427 C317.11971292 139.50973202 317.06641888 154.25485798 317 169 C314.03 169.33 311.06 169.66 308 170 C308.928125 170.680625 309.85625 171.36125 310.8125 172.0625 C314.28146711 174.60640921 315.89609934 177.92536119 317 182 C317.34411932 186.24813988 317.21048964 190.45819222 317.07421875 194.71484375 C317.04777786 195.92572159 317.02133698 197.13659943 316.99409485 198.38417053 C316.90661826 202.23579799 316.79736508 206.08645257 316.6875 209.9375 C316.62421172 212.55530414 316.56234668 215.1731431 316.50195312 217.79101562 C316.3511229 224.19450566 316.18242993 230.59733648 316 237 C313.06243881 237.0269501 310.12512445 237.04681474 307.1875 237.0625 C306.35412109 237.07087891 305.52074219 237.07925781 304.66210938 237.08789062 C303.85966797 237.09111328 303.05722656 237.09433594 302.23046875 237.09765625 C301.49207764 237.10289307 300.75368652 237.10812988 299.99291992 237.11352539 C298 237 298 237 295 236 C294.34 236.33 293.68 236.66 293 237 C290.67209054 237.09219594 288.34144981 237.11749235 286.01171875 237.11352539 C285.29287506 237.11367142 284.57403137 237.11381744 283.83340454 237.1139679 C281.45140592 237.11326989 279.06948501 237.10548141 276.6875 237.09765625 C275.03605187 237.09579129 273.38460318 237.09436775 271.7331543 237.09336853 C267.38064045 237.08954635 263.02815986 237.07972061 258.67565918 237.06866455 C254.24471485 237.05845593 249.81376519 237.05386892 245.3828125 237.04882812 C237.6006548 237.03924443 229.81851954 237.02472776 222.03637695 237.00672913 C218.76778608 236.99948537 215.49933498 237.00189328 212.23074341 237.00672913 C198.18876988 237.02688762 184.14679868 237.04203071 170.10481453 237.05181217 C162.89034566 237.05697203 155.67588767 237.06401242 148.46142578 237.07543945 C142.16727309 237.08540385 135.87312829 237.09185741 129.57896793 237.09408849 C126.24773417 237.09539215 122.91652827 237.09898085 119.58530045 237.10573006 C115.86951595 237.11296226 112.15377865 237.11399003 108.43798828 237.11352539 C107.33342285 237.11712067 106.22885742 237.12071594 105.09082031 237.12442017 C104.07851349 237.1230455 103.06620667 237.12167084 102.02322388 237.12025452 C101.14458742 237.12117631 100.26595097 237.1220981 99.36068916 237.12304783 C97 237 97 237 94.87354851 236.42998409 C92.790244 235.7807947 92.790244 235.7807947 90 237 C87.50965777 237.08469313 85.04827399 237.11601131 82.55859375 237.09765625 C81.47337181 237.09553383 81.47337181 237.09553383 80.3662262 237.09336853 C78.05660854 237.08777707 75.74708825 237.07523361 73.4375 237.0625 C71.87825662 237.05748323 70.31901171 237.05292063 68.75976562 237.04882812 C65.90940409 237.04065528 63.05907847 237.03000451 60.20874023 237.01586914 C57.0495589 237.0002451 53.89596607 237.01442318 50.73730469 237.06347656 C45.80918566 237.1356624 40.88112916 237.18175082 35.95263672 237.21972656 C33.82462643 237.23984192 31.6966714 237.26713781 29.56884766 237.30175781 C26.49888574 237.35040409 23.42965263 237.37299379 20.359375 237.390625 C19.41229675 237.41127014 18.46521851 237.43191528 17.48944092 237.45318604 C11.79353281 237.45511089 8.50031967 236.84310781 4 233 C-0.21104043 228.45650901 -0.54275739 224.58614658 -0.33984375 218.63671875 C0.08962704 215.30461777 1.17773912 212.80931886 3 210 C2.67 209.67 2.34 209.34 2 209 C1.91131701 206.04294679 1.88479704 203.10934944 1.90234375 200.15234375 C1.9037587 199.2659169 1.90517365 198.37949005 1.90663147 197.46620178 C1.91224785 194.62326746 1.92480309 191.78041069 1.9375 188.9375 C1.94251289 187.01497509 1.94707616 185.09244896 1.95117188 183.16992188 C1.96222259 178.44658451 1.97949817 173.72330542 2 169 C1.34 169 0.68 169 0 169 C0 113.23 0 57.46 0 0 Z M232 61 C231.34 64.96 230.68 68.92 230 73 C238.58 73 247.16 73 256 73 C256 69.04 256 65.08 256 61 C248.08 61 240.16 61 232 61 Z M61 113 C61 131.15 61 149.3 61 168 C80.8 168 100.6 168 121 168 C116.9880584 163.31940147 113.15373723 159.08994809 108.625 155 C107.76648438 154.21592773 107.76648438 154.21592773 106.890625 153.41601562 C103.35497238 150.19633196 99.77396745 147.03342949 96.15625 143.90625 C93.22759537 141.31714953 90.36604832 138.65802213 87.5 136 C83.40361694 132.20162037 79.28060518 128.45092909 75.05078125 124.80078125 C71.38268478 121.5798432 67.809676 118.25212187 64.22265625 114.94140625 C62.3663325 112.8903586 62.3663325 112.8903586 61 113 Z M236 131 C235.030625 132.93875 234.06125 134.8775 233.0625 136.875 C225.46877386 151.31850301 214.17290507 160.42889949 199 166 C203.3336793 168.88911953 207.84943578 170.26005979 213 171 C216.64161457 169.76075515 216.64161457 169.76075515 220 168 C226.34043024 167.06452669 231.20681413 168.50293712 237 171 C237.99 171.33 238.98 171.66 240 172 C240.33 171.01 240.66 170.02 241 169 C245.95 168.67 250.9 168.34 256 168 C256 155.79 256 143.58 256 131 C249.4 131 242.8 131 236 131 Z " fill="#FBFEFE" transform="translate(6,11)"/>
<path d="M0 0 C6.6 0 13.2 0 20 0 C20 49.83 20 99.66 20 151 C9 151 9 151 6.16015625 149.41796875 C5.12181641 148.31388672 5.12181641 148.31388672 4.0625 147.1875 C3.25167969 146.36894531 2.44085938 145.55039063 1.60546875 144.70703125 C0.74566406 143.81371094 -0.11414063 142.92039063 -1 142 C-3.01518084 140.09562407 -5.07012157 138.23634952 -7.125 136.375 C-8.1500194 135.43389843 -9.17476613 134.49249977 -10.19921875 133.55078125 C-12.42311777 131.52538925 -14.66310981 129.53044604 -16.9375 127.5625 C-21.12109857 123.93787911 -25.1643461 120.16614933 -29.22241211 116.40258789 C-32.11364128 113.72598962 -35.01889404 111.07688821 -38 108.5 C-42.1574193 104.90629857 -46.17033768 101.16122476 -50.19848633 97.42431641 C-53.91353122 93.9843995 -57.67415036 90.60811896 -61.51171875 87.3046875 C-62.71614326 86.24884029 -63.86742512 85.13257488 -65 84 C-65.33 106.11 -65.66 128.22 -66 151 C-72.6 151 -79.2 151 -86 151 C-86 114.04 -86 77.08 -86 39 C-82.60854693 40.69572653 -81.2059289 41.58254628 -78.75 44.1875 C-75.72703655 47.29993806 -72.57668699 50.15942477 -69.29296875 52.9921875 C-66.53094206 55.41072535 -63.82598859 57.88887734 -61.125 60.375 C-57.43460926 63.77050573 -53.73294545 67.15115183 -50 70.5 C-46.26705169 73.84885073 -42.56554155 77.22965565 -38.875 80.625 C-35.63786909 83.6022264 -32.38862144 86.55952966 -29.0625 89.4375 C-25.47040618 92.54964809 -21.98462861 95.76887094 -18.5 99 C-9.52470357 107.32349593 -9.52470357 107.32349593 0 115 C0 77.05 0 39.1 0 0 Z " fill="#03B7DA" transform="translate(124,20)"/>
<path d="M0 0 C16 0 16 0 20.5625 2.81640625 C21.74902844 4.0265016 22.89560668 5.27700558 24 6.5625 C25.24690846 7.86374844 26.4942982 9.16453589 27.7421875 10.46484375 C28.59441895 11.39659424 28.59441895 11.39659424 29.46386719 12.34716797 C31.23810491 14.25619361 33.12504404 15.9555807 35.125 17.625 C38.66159415 20.66739759 42.0802867 23.82779776 45.5 27 C48.96283368 30.2116335 52.42648515 33.41102953 56 36.5 C60.15897737 40.09504824 64.17359405 43.84136211 68.20288086 47.58007812 C71.84903777 50.95676201 75.53921385 54.26961719 79.31640625 57.5 C81.2848243 59.25376457 83.13581656 61.13581656 85 63 C85.33 42.21 85.66 21.42 86 0 C92.6 0 99.2 0 106 0 C106 35.64 106 71.28 106 108 C97.06569343 101.29927007 97.06569343 101.29927007 94 98.0625 C90.87886143 94.85667937 87.64726154 91.89024081 84.2578125 88.97265625 C81.50553512 86.56798484 78.8137368 84.10008205 76.125 81.625 C70.78389031 76.71181553 65.40292912 71.8452074 60 67 C54.59706481 62.15478715 49.21649561 57.2877692 43.875 52.375 C39.30948309 48.17823915 34.68124422 44.06731056 30 40 C25.545 36.04 25.545 36.04 21 32 C20.67 71.27 20.34 110.54 20 151 C13.4 151 6.8 151 0 151 C0 101.17 0 51.34 0 0 Z " fill="#04BAD5" transform="translate(15,20)"/>
<path d="M0 0 C5.56572714 -0.11589899 11.12713461 -0.21508567 16.69311523 -0.2746582 C18.5793286 -0.29953382 20.46544838 -0.33344733 22.35131836 -0.37719727 C40.13729644 -0.77895335 54.63376621 1.40920047 68.17578125 14.02734375 C78.19100413 24.45750996 82.29631708 36.66514616 82.38867188 50.84985352 C82.2670713 56.51154982 80.93717998 61.23337828 78.6796875 66.44921875 C77.80705175 69.7241104 78.43763719 71.04404815 80 74 C80.76142993 75.22761151 81.55327621 76.43690254 82.375 77.625 C89.14425998 88.49197226 90.5071983 99.4119016 89 112 C86.02533006 124.67525287 78.43700504 135.33478974 68 143 C58.03964377 149.10986708 48.12112015 151.47284626 36.5234375 151.29296875 C34.94654648 151.28660149 34.94654648 151.28660149 33.33779907 151.28010559 C30.01659317 151.26346139 26.69601906 151.22583614 23.375 151.1875 C21.10808175 151.17243473 18.84115388 151.15874957 16.57421875 151.14648438 C11.04923985 151.11360466 5.52472663 151.06192216 0 151 C0 144.4 0 137.8 0 131 C3.25359375 130.99742187 6.5071875 130.99484375 9.859375 130.9921875 C13.04682992 130.96930488 16.23403271 130.93629692 19.42138672 130.90234375 C21.61891647 130.88429158 23.81655872 130.87659545 26.01416016 130.87988281 C44.61687032 131.12433645 44.61687032 131.12433645 60.66699219 122.59790039 C66.13194025 116.81566505 68.25864292 109.83617693 68.5625 102.0625 C68.26856108 93.26329631 65.57930453 87.11391257 59.1875 81.0625 C55.37148912 77.98061693 51.67336637 76.41870051 47 75 C47 74.34 47 73.68 47 73 C48.19686919 72.12090997 49.43435671 71.29682309 50.6875 70.5 C56.52673177 66.29658139 59.61107178 59.9991089 61 53 C62.16065584 44.06735762 59.90974071 37.4767056 55 30 C50.52302149 24.82277614 43.87140914 21.39291547 37.03839111 20.84178162 C36.35444275 20.82623734 35.67049438 20.81069305 34.96582031 20.79467773 C33.79505951 20.7647599 33.79505951 20.7647599 32.60064697 20.73423767 C31.76821472 20.71752518 30.93578247 20.70081268 30.078125 20.68359375 C29.21813904 20.66281265 28.35815308 20.64203156 27.47210693 20.62062073 C24.73148402 20.55536261 21.99076725 20.49635083 19.25 20.4375 C17.3893133 20.39429219 15.52863602 20.35067718 13.66796875 20.30664062 C9.11207388 20.19894106 4.5561053 20.09969132 0 20 C0 13.4 0 6.8 0 0 Z " fill="#04B7DB" transform="translate(147,20)"/>
<path d="M0 0 C0.94198242 -0.00960754 1.88396484 -0.01921509 2.85449219 -0.02911377 C3.86801758 -0.03336365 4.88154297 -0.03761353 5.92578125 -0.04199219 C7.50601074 -0.0505423 7.50601074 -0.0505423 9.11816406 -0.05926514 C11.35073851 -0.06871052 13.58332687 -0.07524728 15.81591797 -0.07910156 C19.1978466 -0.08875181 22.57915288 -0.11975711 25.9609375 -0.15136719 C28.13671517 -0.15790334 30.31249716 -0.1631514 32.48828125 -0.16699219 C33.48561279 -0.17933899 34.48294434 -0.19168579 35.51049805 -0.20440674 C50.9604909 -0.15646736 63.53708731 4.77658888 74.69140625 15.42675781 C78.60481798 19.62827348 81.76983258 23.97299388 84.23828125 29.16113281 C84.5719722 29.83860565 84.90566315 30.51607849 85.24946594 31.21408081 C89.86825242 42.41559013 88.73574856 54.50526907 88.62890625 66.39550781 C88.62143571 68.84457943 88.61574662 71.29365706 88.61175537 73.74273682 C88.59656324 80.15430524 88.55733685 86.56550488 88.51293945 92.97692871 C88.47184787 99.53307102 88.45371478 106.08927355 88.43359375 112.64550781 C88.39083622 125.48423666 88.320539 138.32259622 88.23828125 151.16113281 C81.63828125 151.16113281 75.03828125 151.16113281 68.23828125 151.16113281 C68.23417236 147.91156738 68.23006348 144.66200195 68.22583008 141.31396484 C68.2086047 130.55709869 68.16405612 119.8004693 68.10619068 109.04374886 C68.07195335 102.52423663 68.04681566 96.00495794 68.04272461 89.48535156 C68.03843484 83.18925203 68.00991448 76.89367905 67.96484947 70.59774399 C67.95189638 68.20012355 67.94755898 65.80244004 67.95212746 63.40478897 C67.95704868 60.03670189 67.93087065 56.67014471 67.89770508 53.30224609 C67.90633072 52.31896835 67.91495636 51.33569061 67.92384338 50.32261658 C67.79020223 42.18490043 65.27198339 35.81573629 60.0625 29.54003906 C59.35738281 28.940625 58.65226562 28.34121094 57.92578125 27.72363281 C57.22839844 27.10617188 56.53101563 26.48871094 55.8125 25.85253906 C48.80075502 21.24542893 42.67165586 20.79644525 34.52734375 21.03613281 C32.45704914 21.05284258 30.38673345 21.06708934 28.31640625 21.07910156 C25.08734082 21.1119811 21.86173758 21.16117692 18.63378906 21.25341797 C-0.39629237 21.74993062 -0.39629237 21.74993062 -5.29003906 17.82128906 C-7.79241549 15.05838363 -9.74477637 12.2866196 -11.76171875 9.16113281 C-13.39240383 7.45924512 -15.0503793 5.78189586 -16.76171875 4.16113281 C-15.51280261 3.67914819 -14.26253067 3.20067604 -13.01171875 2.72363281 C-12.315625 2.45679688 -11.61953125 2.18996094 -10.90234375 1.91503906 C-7.19407448 0.60902452 -3.93842308 0.03257993 0 0 Z " fill="#04B4E2" transform="translate(225.76171875,19.8388671875)"/>
<path d="M0 0 C5.79829005 -0.09956118 11.59607242 -0.17179346 17.39501953 -0.21972656 C19.36385782 -0.23972787 21.33263756 -0.26693802 23.30126953 -0.30175781 C26.14630658 -0.35078531 28.99055215 -0.37308382 31.8359375 -0.390625 C32.70302338 -0.41127014 33.57010925 -0.43191528 34.46347046 -0.45318604 C43.76121393 -0.45652971 51.53733264 2.71529767 58.30859375 9.0625 C62.61778249 13.99866077 65.13146216 20.0163102 65.11352539 26.56323242 C65.11340454 27.49679565 65.11328369 28.43035889 65.11315918 29.39221191 C65.10804321 30.37008667 65.10292725 31.34796143 65.09765625 32.35546875 C65.09664917 33.25672485 65.09564209 34.15798096 65.09460449 35.08654785 C65.08937206 38.45354484 65.0754108 41.8205237 65.0625 45.1875 C65.041875 52.715625 65.02125 60.24375 65 68 C47.51 68 30.02 68 12 68 C10.68 64.37 9.36 60.74 8 57 C7.01 55.35 6.02 53.7 5 52 C5 51.34 5 50.68 5 50 C18.2 50 31.4 50 45 50 C44.9175 45.771875 44.835 41.54375 44.75 37.1875 C44.72631348 35.1923938 44.72631348 35.1923938 44.70214844 33.15698242 C44.65622559 31.58460815 44.65622559 31.58460815 44.609375 29.98046875 C44.58842773 28.90692139 44.56748047 27.83337402 44.54589844 26.72729492 C44.21963688 23.96151414 44.21963688 23.96151414 42.45117188 22.15820312 C39.05949654 20.55560275 35.85226941 20.52080598 32.171875 20.48828125 C31.42286926 20.47033005 30.67386353 20.45237885 29.90216064 20.43388367 C27.51816376 20.37985457 25.1343662 20.34590997 22.75 20.3125 C21.13018064 20.27932025 19.51038756 20.24482997 17.890625 20.20898438 C13.92722734 20.12413284 9.96388803 20.05728711 6 20 C5.70452271 18.7637085 5.70452271 18.7637085 5.40307617 17.50244141 C5.13986572 16.42140137 4.87665527 15.34036133 4.60546875 14.2265625 C4.21717896 12.619021 4.21717896 12.619021 3.82104492 10.97900391 C2.92667305 7.73394722 1.62560654 4.94157374 0 2 C0 1.34 0 0.68 0 0 Z " fill="#04B7DC" transform="translate(226,43)"/>
<path d="M0 0 C6.24464649 -0.0921719 12.48690299 -0.17170821 18.73168945 -0.21972656 C20.85286487 -0.23975746 22.97398565 -0.26699025 25.0949707 -0.30175781 C28.15589941 -0.35065214 31.21609376 -0.37305452 34.27734375 -0.390625 C35.21521225 -0.41127014 36.15308075 -0.43191528 37.11936951 -0.45318604 C45.88439108 -0.45612756 53.05964346 2.28452548 59.4921875 8.328125 C64.97924057 14.41221493 65.7005461 20.43372372 65.44921875 28.51953125 C64.57751193 35.27336407 61.91197815 40.00111375 57.25 44.875 C49.60470198 49.87384871 43.39155401 51.59125458 34.27734375 51.390625 C33.29125626 51.38496521 32.30516876 51.37930542 31.28919983 51.37347412 C28.17145101 51.35126734 25.05489539 51.30110089 21.9375 51.25 C19.81056359 51.2299147 17.68360899 51.2116675 15.55664062 51.1953125 C10.37027577 51.15487301 5.18645705 51.07655287 0 51 C0 44.4 0 37.8 0 31 C4.62128906 30.92652344 4.62128906 30.92652344 9.3359375 30.8515625 C12.31124846 30.79759282 15.28647714 30.74026958 18.26171875 30.68261719 C20.33359681 30.64427315 22.40554269 30.60942995 24.47753906 30.578125 C27.45141887 30.53259191 30.42482962 30.47457882 33.3984375 30.4140625 C34.79381241 30.39673569 34.79381241 30.39673569 36.21737671 30.37905884 C37.50848862 30.3492543 37.50848862 30.3492543 38.82568359 30.31884766 C39.96485733 30.29886215 39.96485733 30.29886215 41.12704468 30.2784729 C43.2431226 30.15382948 43.2431226 30.15382948 45 28 C45 25.69 45 23.38 45 21 C30.15 20.67 15.3 20.34 0 20 C0 13.4 0 6.8 0 0 Z " fill="#05B9D7" transform="translate(147,97)"/>
<path d="M0 0 C5.08719555 -0.09240113 10.17141937 -0.17185895 15.25878906 -0.21972656 C16.98512702 -0.23970285 18.71139853 -0.26689372 20.4375 -0.30175781 C31.80719855 -0.52546716 40.54765802 -0.26098056 50.3125 6.1875 C56.02857564 12.16943962 58.32362517 17.05145458 58.6875 25.4375 C58.41372051 32.62781404 56.89060031 37.66026293 52 43 C44.81913234 49.03444844 38.44687495 51.31383736 29.19921875 51.1953125 C27.9446563 51.19106766 27.9446563 51.19106766 26.66474915 51.18673706 C24.00551774 51.1755832 21.34662882 51.15048763 18.6875 51.125 C16.87956217 51.11496399 15.07161904 51.10583923 13.26367188 51.09765625 C8.84221128 51.07736501 4.42148695 51.03820776 0 51 C0 44.4 0 37.8 0 31 C2.57554687 30.95101562 5.15109375 30.90203125 7.8046875 30.8515625 C10.2935172 30.79758396 12.78224899 30.74026426 15.27099609 30.68261719 C17.00334407 30.64428659 18.73577274 30.60944094 20.46826172 30.578125 C22.95569749 30.53256235 25.44257566 30.47455497 27.9296875 30.4140625 C28.70682098 30.40251129 29.48395447 30.39096008 30.28463745 30.37905884 C34.60650975 30.41206232 34.60650975 30.41206232 38 28 C38.33333333 25.5 38.33333333 25.5 38 23 C35.05807216 20.05807216 31.87809027 20.64462603 27.9296875 20.5859375 C27.13345978 20.56657135 26.33723206 20.5472052 25.51687622 20.5272522 C22.96969366 20.46739526 20.42246605 20.42104721 17.875 20.375 C16.1497197 20.33682579 14.42445857 20.29777439 12.69921875 20.2578125 C8.46624468 20.16003447 4.23347877 20.08051661 0 20 C0 13.4 0 6.8 0 0 Z " fill="#04B9D7" transform="translate(147,43)"/>
<path d="M0 0 C16.83 0 33.66 0 51 0 C51 18.48 51 36.96 51 56 C44.4 56 37.8 56 31 56 C31 43.46 31 30.92 31 18 C20.44 18 9.88 18 -1 18 C-0.505 9.09 -0.505 9.09 0 0 Z " fill="#04B6DE" transform="translate(240,115)"/>
<path d="M0 0 C1.8975 -0.061875 3.795 -0.12375 5.75 -0.1875 C7.35101563 -0.23970703 7.35101563 -0.23970703 8.984375 -0.29296875 C12.30027855 0.02917214 13.59016673 0.77148914 16 3 C15.625 5.9375 15.625 5.9375 15 9 C14.01 9.495 14.01 9.495 13 10 C13.66 10.556875 14.32 11.11375 15 11.6875 C17 14 17 14 17.625 16.5 C17 19 17 19 14.6875 21.3125 C11 23 11 23 0 23 C0 15.41 0 7.82 0 0 Z " fill="#33CECC" transform="translate(198,188)"/>
<path d="M0 0 C2.91368224 1.98378365 4.63558769 3.41448681 5.4453125 6.9375 C5.64891198 10.52085078 5.12565891 12.73775531 3.5625 16 C0.306419 18.54133151 -1.81465693 18.73050747 -5.87109375 18.4765625 C-8 18 -8 18 -10.5625 16 C-12.40251016 12.15997879 -12.96007379 9.17716314 -12 5 C-8.64524049 0.12034981 -5.82662873 -1.04046942 0 0 Z " fill="#F6FDFC" transform="translate(234,190)"/>
<path d="M0 0 C11 0 11 0 15 2 C15.875 4.9375 15.875 4.9375 16 8 C15.01 9.485 15.01 9.485 14 11 C13.34 11 12.68 11 12 11 C12.639375 12.051875 13.27875 13.10375 13.9375 14.1875 C15.61754452 17.10828412 16.58996052 19.6171743 17 23 C15.68 23 14.36 23 13 23 C12.78085938 22.36191406 12.56171875 21.72382813 12.3359375 21.06640625 C11.3728723 18.55695588 10.42196269 16.28375825 9 14 C5.883975 12.78209281 5.883975 12.78209281 3 13 C3 16.3 3 19.6 3 23 C2.01 23 1.02 23 0 23 C0 15.41 0 7.82 0 0 Z " fill="#19C8C6" transform="translate(122,216)"/>
<path d="M0 0 C3.02883418 2.04117086 4.70071921 3.53742777 5.44921875 7.1953125 C5.62850477 10.94177206 5.44653469 13.28554449 3.4375 16.5 C0.12803865 18.5365916 -2.10687114 19.06830051 -6 19 C-8.9375 17.1875 -8.9375 17.1875 -11 14 C-11.68914378 10.52626713 -11.7255247 7.46964633 -11 4 C-7.83558431 0.09101591 -4.93619113 -0.92553584 0 0 Z " fill="#F7FDFD" transform="translate(279,218)"/>
<path d="M0 0 C1.8975 -0.061875 3.795 -0.12375 5.75 -0.1875 C7.35101563 -0.23970703 7.35101563 -0.23970703 8.984375 -0.29296875 C12.3368133 0.0327215 13.66471658 0.60898189 16 3 C16.4375 6 16.4375 6 16 9 C14.5 10.875 14.5 10.875 13 12 C13.474375 12.70125 13.94875 13.4025 14.4375 14.125 C16.08739857 17.16081337 16.60368464 19.59168786 17 23 C15.109375 22.75390625 15.109375 22.75390625 13 22 C11.953125 20.15234375 11.953125 20.15234375 11.25 17.9375 C11.00765625 17.20402344 10.7653125 16.47054687 10.515625 15.71484375 C10.26039063 14.86599609 10.26039063 14.86599609 10 14 C7.69 13.67 5.38 13.34 3 13 C3 15.97 3 18.94 3 22 C2.01 22 1.02 22 0 22 C0 14.74 0 7.48 0 0 Z " fill="#15C7C5" transform="translate(271,188)"/>
<path d="M0 0 C3.5 0.6875 3.5 0.6875 6.4375 3.3125 C8.68489725 6.99005913 9.21539764 8.48453885 8.5 12.6875 C6.23529412 17.31985294 6.23529412 17.31985294 3.5 18.6875 C-3.63669065 19.37814748 -3.63669065 19.37814748 -7 16.6875 C-8.91831364 12.85087272 -9.46644949 9.89240304 -8.5 5.6875 C-5.92740402 1.94554221 -4.46171566 0.87640843 0 0 Z " fill="#F8FDFD" transform="translate(104.5,189.3125)"/>
<path d="M0 0 C4 0 4 0 5.46386719 1.37695312 C5.90375977 2.00537109 6.34365234 2.63378906 6.796875 3.28125 C7.52197266 4.29638672 7.52197266 4.29638672 8.26171875 5.33203125 C8.75285156 6.04746094 9.24398438 6.76289063 9.75 7.5 C10.25660156 8.21542969 10.76320313 8.93085938 11.28515625 9.66796875 C12.53527582 11.43700587 13.76920247 13.21746565 15 15 C15.33 10.05 15.66 5.1 16 0 C17.32 0 18.64 0 20 0 C20 7.59 20 15.18 20 23 C14.375 21.875 14.375 21.875 12.10546875 18.62109375 C11.62529297 17.94755859 11.14511719 17.27402344 10.65039062 16.58007812 C10.16763672 15.87302734 9.68488281 15.16597656 9.1875 14.4375 C8.43436523 13.37112305 8.43436523 13.37112305 7.66601562 12.28320312 C6.43127204 10.53104318 5.21391182 8.76665625 4 7 C3.67 12.28 3.34 17.56 3 23 C2.01 23 1.02 23 0 23 C0 15.41 0 7.82 0 0 Z " fill="#1EC9C7" transform="translate(293,216)"/>
<path d="M0 0 C6.29965434 0 7.99879624 0.023093 13 3 C14.65094122 4.65094122 14.28867693 6.54485937 14.375 8.8125 C14.31772438 12.45210518 14.2752393 13.62709514 12.0625 16.625 C9 18 9 18 0 18 C0 12.06 0 6.12 0 0 Z " fill="#FAFEFD" transform="translate(166,218)"/>
<path d="M0 0 C8.11111111 0 8.11111111 0 12 2 C14.40450178 4.40450178 14.29609139 5.08233942 14.3125 8.375 C14.24526127 11.36232083 14.09625556 12.81665609 12.6875 15.5 C8.73928999 19.00952001 5.52515401 18 0 18 C0 12.06 0 6.12 0 0 Z " fill="#FBFEFE" transform="translate(296,190)"/>
<path d="M0 0 C14.19642857 -0.53571429 14.19642857 -0.53571429 17.75 1.875 C21.98038966 5.87036801 21.98038966 5.87036801 22.30078125 7.98828125 C22.32491824 12.77545049 22.31139283 16.24708813 19 20 C13.35501322 24.30801623 6.75916547 23.20691323 0 23 C0 15.41 0 7.82 0 0 Z M4 2 C4 7.94 4 13.88 4 20 C12.19109774 20.6143856 12.19109774 20.6143856 16.0625 18.625 C18.63345297 15.1417734 18.56003419 12.57726633 18.56640625 8.33984375 C18.19193399 5.86378642 18.19193399 5.86378642 16.15234375 4.25390625 C11.69793819 1.65887143 9.59900698 2 4 2 Z " fill="#25CBC9" transform="translate(162,216)"/>
<path d="M0 0 C1.65 0 3.3 0 5 0 C14 19.40163934 14 19.40163934 14 23 C12.68 23 11.36 23 10 23 C9.34 20.69 8.68 18.38 8 16 C4.5753227 16.01285057 1.3266373 16.14825228 -2 17 C-4.23886732 19.88679844 -4.23886732 19.88679844 -5 23 C-5.99 23 -6.98 23 -8 23 C-5.81659819 15.13620323 -3.00714974 7.58324716 0 0 Z " fill="#1FC9C7" transform="translate(59,216)"/>
<path d="M0 0 C2.42260742 0.16235352 2.42260742 0.16235352 5 1 C6.30200195 2.91772461 6.30200195 2.91772461 7.23828125 5.40234375 C7.58310547 6.29244141 7.92792969 7.18253906 8.28320312 8.09960938 C8.62287109 9.03611328 8.96253906 9.97261719 9.3125 10.9375 C9.67150391 11.87013672 10.03050781 12.80277344 10.40039062 13.76367188 C13 20.61178571 13 20.61178571 13 23 C11.68 23 10.36 23 9 23 C8.34 21.02 7.68 19.04 7 17 C3.7 17 0.4 17 -3 17 C-3.66 18.98 -4.32 20.96 -5 23 C-6.32 23 -7.64 23 -9 23 C-2.35 2.35 -2.35 2.35 0 0 Z " fill="#23CAC8" transform="translate(222,216)"/>
<path d="M0 0 C2.206875 -0.061875 4.41375 -0.12375 6.6875 -0.1875 C8.54955078 -0.23970703 8.54955078 -0.23970703 10.44921875 -0.29296875 C15.05194123 0.08679383 17.54071363 1.59103385 20.8125 4.75 C22.52868326 8.00171564 22.38162088 10.37460162 22 14 C20.19049862 18.19042424 18.04673757 19.97663121 14 22 C11 23 11 23 0 23 C0 15.41 0 7.82 0 0 Z M4 2 C4 7.94 4 13.88 4 20 C11.5214072 20.34926826 11.5214072 20.34926826 17 17 C18.16343227 14.67313547 18.19895988 13.15278587 18.25 10.5625 C18.27578125 9.78003906 18.3015625 8.99757812 18.328125 8.19140625 C17.92360521 5.48979194 17.11371092 4.66817381 15 3 C11.25953198 1.53053042 8.24891539 2 4 2 Z " fill="#1BC8C6" transform="translate(292,188)"/>
<path d="M0 0 C1.65 0 3.3 0 5 0 C14 19.40163934 14 19.40163934 14 23 C12.68 23 11.36 23 10 23 C8.515 19.535 8.515 19.535 7 16 C4.03 16 1.06 16 -2 16 C-2.66 18.31 -3.32 20.62 -4 23 C-5.32 23 -6.64 23 -8 23 C-7.38696372 17.59491957 -5.55619307 13.07560955 -3.4375 8.125 C-3.10814453 7.34125 -2.77878906 6.5575 -2.43945312 5.75 C-1.63203214 3.83091244 -0.81680231 1.9151135 0 0 Z " fill="#19C8C6" transform="translate(253,188)"/>
<path d="M0 0 C1.2065625 0.0309375 1.2065625 0.0309375 2.4375 0.0625 C3.7792678 3.32993656 5.10944359 6.60196908 6.4375 9.875 C6.8190625 10.80376953 7.200625 11.73253906 7.59375 12.68945312 C7.9546875 13.58212891 8.315625 14.47480469 8.6875 15.39453125 C9.02265625 16.21671143 9.3578125 17.0388916 9.703125 17.88598633 C10.4375 20.0625 10.4375 20.0625 10.4375 23.0625 C9.1175 23.0625 7.7975 23.0625 6.4375 23.0625 C5.7775 20.4225 5.1175 17.7825 4.4375 15.0625 C1.1375 15.0625 -2.1625 15.0625 -5.5625 15.0625 C-6.2225 17.7025 -6.8825 20.3425 -7.5625 23.0625 C-8.8825 23.0625 -10.2025 23.0625 -11.5625 23.0625 C-5.32196548 0.12980404 -5.32196548 0.12980404 0 0 Z " fill="#1CC8C7" transform="translate(156.5625,187.9375)"/>
<path d="M0 0 C1.2065625 0.0309375 1.2065625 0.0309375 2.4375 0.0625 C3.7792678 3.32993656 5.10944359 6.60196908 6.4375 9.875 C6.8190625 10.80376953 7.200625 11.73253906 7.59375 12.68945312 C7.9546875 13.58212891 8.315625 14.47480469 8.6875 15.39453125 C9.02265625 16.21671143 9.3578125 17.0388916 9.703125 17.88598633 C10.4375 20.0625 10.4375 20.0625 10.4375 23.0625 C9.1175 22.7325 7.7975 22.4025 6.4375 22.0625 C5.7775 19.7525 5.1175 17.4425 4.4375 15.0625 C1.1375 15.0625 -2.1625 15.0625 -5.5625 15.0625 C-5.706875 15.825625 -5.85125 16.58875 -6 17.375 C-6.5625 20.0625 -6.5625 20.0625 -7.5625 23.0625 C-8.8825 23.0625 -10.2025 23.0625 -11.5625 23.0625 C-4.16833333 0.10166667 -4.16833333 0.10166667 0 0 Z " fill="#1BC8C6" transform="translate(52.5625,187.9375)"/>
<path d="M0 0 C5.625 1.125 5.625 1.125 7.89453125 4.37890625 C8.37470703 5.05244141 8.85488281 5.72597656 9.34960938 6.41992188 C10.07374023 7.48049805 10.07374023 7.48049805 10.8125 8.5625 C11.56563477 9.62887695 11.56563477 9.62887695 12.33398438 10.71679688 C13.56872796 12.46895682 14.78608818 14.23334375 16 16 C16.33 10.72 16.66 5.44 17 0 C17.99 0 18.98 0 20 0 C20 7.59 20 15.18 20 23 C18.68 23 17.36 23 16 23 C14.09803428 20.75733948 12.49111984 18.62127097 10.875 16.1875 C10.21177734 15.22360352 10.21177734 15.22360352 9.53515625 14.24023438 C8.34290402 12.50228362 7.16736175 10.75473181 6 9 C5.34 8.01 4.68 7.02 4 6 C3.67 11.61 3.34 17.22 3 23 C2.01 23 1.02 23 0 23 C0 15.41 0 7.82 0 0 Z " fill="#0CC4C3" transform="translate(121,188)"/>
<path d="M0 0 C3.00197464 1.80118478 4.45166366 2.90332732 6 6 C6.51816286 10.79937735 6.71207367 14.73409126 4.3125 19 C0.77007117 22.06372224 -1.79655256 22.86871482 -6.4375 23.375 C-10.74037381 22.92206591 -12.73578654 21.80874181 -16 19 C-18.31989776 15.09835377 -18.54888094 11.46945905 -18 7 C-13.51254206 -0.45685391 -8.13869132 -0.88081075 0 0 Z M-14 7 C-14.96644949 11.20490304 -14.41831364 14.16337272 -12.5 18 C-9.45415768 20.43667386 -7.71704178 20.66801653 -3.90234375 20.43359375 C-1.01975787 19.77657726 0.28336232 18.33462725 2 16 C3.45147903 13.09704195 3.37239025 11.22738221 3 8 C1.08667706 4.50401006 1.08667706 4.50401006 -2 2 C-7.80477187 0.85977695 -10.6642161 2.1479507 -14 7 Z " fill="#0EC5C3" transform="translate(110,188)"/>
<path d="M0 0 C5.74154394 1.14830879 7.06175442 2.97491075 10.25 7.4375 C10.91902344 8.3356543 10.91902344 8.3356543 11.6015625 9.25195312 C13.21896942 11.4403537 14.78063274 13.56126549 16 16 C16.33 10.72 16.66 5.44 17 0 C17.99 0 18.98 0 20 0 C20 7.26 20 14.52 20 22 C14.37420053 20.87484011 14.37420053 20.87484011 12.359375 17.91015625 C11.92882813 17.29076172 11.49828125 16.67136719 11.0546875 16.03320312 C10.62414063 15.38287109 10.19359375 14.73253906 9.75 14.0625 C9.08097656 13.09280273 9.08097656 13.09280273 8.3984375 12.10351562 C6.81184229 9.78852898 5.25670391 7.51340781 4 5 C3.67 10.61 3.34 16.22 3 22 C2.01 22 1.02 22 0 22 C0 14.74 0 7.48 0 0 Z " fill="#0AC4C2" transform="translate(17,188)"/>
<path d="M0 0 C3.12578143 1.6720747 5.39281175 3.7856235 7 7 C7.39771327 11.77255923 7.47453429 14.08482672 5.25 18.375 C2.66111425 21.39536671 0.77129709 22.69404868 -3.1484375 23.37109375 C-7.38139331 23.4973398 -10.14342222 23.37350209 -13.5 20.625 C-17.13542732 16.80780131 -17.39236502 14.44157848 -17.359375 9.328125 C-16.75455722 5.40995764 -14.83123243 3.69641184 -12 1 C-8.27533151 -0.86233425 -4.05504687 -0.57130829 0 0 Z M-13 6 C-14.06667948 11.10113654 -13.78077121 14.79335358 -10.9375 19.1875 C-8.06981032 21.30173939 -8.06981032 21.30173939 -4.4375 21.0625 C-0.62834973 19.88512628 0.88689462 19.3809686 3 16 C3.62033544 12.86906168 3.64026301 10.12893749 3 7 C0.56579582 3.49188221 -0.79342584 2.22623266 -5 1.4375 C-8.92509607 2.17345551 -10.46508106 2.86862955 -13 6 Z " fill="#12C6C4" transform="translate(281,216)"/>
<path d="M0 0 C3.00197464 1.80118478 4.45166366 2.90332732 6 6 C6.51436888 10.08555854 6.92098732 14.21847627 4.98828125 17.95703125 C2.85188119 20.59384934 1.23364822 21.92211726 -2 23 C-6.75454774 23.38971703 -9.07833261 23.4608337 -13.375 21.3125 C-17.02711277 18.09516256 -17.76976651 15.80349565 -18.375 11.0625 C-17.89385565 7.13315451 -16.44484357 5.07351763 -14 2 C-9.55139766 -0.9657349 -5.21856465 -0.64087636 0 0 Z M-11.9375 4 C-14.24292204 7.35334115 -14.70728149 9.08888431 -14.40625 13.0625 C-13.70009046 16.43033781 -12.71195062 17.88335562 -10 20 C-6.85089594 20.70493705 -4.14910406 20.70493705 -1 20 C1.71195062 17.88335562 2.70009046 16.43033781 3.40625 13.0625 C3.70728149 9.08888431 3.24292204 7.35334115 0.9375 4 C-3.82690226 0.75615165 -7.17309774 0.75615165 -11.9375 4 Z " fill="#19C8C6" transform="translate(236,188)"/>
<path d="M0 0 C2.3125 1.625 2.3125 1.625 4 4 C4.61195145 7.6717087 4.48706506 9.28813568 2.375 12.375 C-0.71186432 14.48706506 -2.3282913 14.61195145 -6 14 C-9.08884321 11.88658096 -9.87108765 10.68753254 -10.5625 7 C-10 4 -10 4 -7.8125 1.625 C-4.75367423 -0.14232156 -3.44653179 -0.70698088 0 0 Z " fill="#F6FCFC" transform="translate(25,225)"/>
<path d="M0 0 C4.62 0 9.24 0 14 0 C14 0.66 14 1.32 14 2 C10.37 2 6.74 2 3 2 C3 4.64 3 7.28 3 10 C6.3 10 9.6 10 13 10 C13 10.66 13 11.32 13 12 C9.7 12 6.4 12 3 12 C3 14.64 3 17.28 3 20 C6.96 20 10.92 20 15 20 C15 20.99 15 21.98 15 23 C10.05 23 5.1 23 0 23 C0 15.41 0 7.82 0 0 Z " fill="#0AC4C2" transform="translate(143,216)"/>
<path d="M0 0 C1.07765625 0.01804688 2.1553125 0.03609375 3.265625 0.0546875 C4.49539062 0.08949219 4.49539062 0.08949219 5.75 0.125 C5.75 1.115 5.75 2.105 5.75 3.125 C5.08613281 3.07859375 4.42226562 3.0321875 3.73828125 2.984375 C-0.47847321 2.81201131 -3.49597943 2.77815054 -7.375 4.5625 C-9.77039545 7.83620711 -9.77228193 10.03585182 -9.71875 14.00390625 C-9.12268917 16.70108149 -8.53544027 17.56608916 -6.25 19.125 C-3.28756274 19.70447281 -3.28756274 19.70447281 -0.0625 19.8125 C1.02417969 19.87824219 2.11085938 19.94398438 3.23046875 20.01171875 C4.47763672 20.06779297 4.47763672 20.06779297 5.75 20.125 C5.75 20.785 5.75 21.445 5.75 22.125 C2.03986322 23.98006839 -2.20092823 23.57834699 -6.25 23.125 C-9.49168949 21.50415526 -11.44736744 20.18301565 -13.625 17.3125 C-14.98537221 12.55119727 -14.81878187 9.20162283 -12.5 4.8125 C-8.70062696 0.27435998 -5.82330543 -0.1265936 0 0 Z " fill="#1DC9C7" transform="translate(111.25,215.875)"/>
<path d="M0 0 C0.98484375 0.01804688 1.9696875 0.03609375 2.984375 0.0546875 C4.10585937 0.08949219 4.10585937 0.08949219 5.25 0.125 C5.25 0.785 5.25 1.445 5.25 2.125 C4.64671875 2.17398438 4.0434375 2.22296875 3.421875 2.2734375 C2.62265625 2.34820312 1.8234375 2.42296875 1 2.5 C-0.18335937 2.60441406 -0.18335937 2.60441406 -1.390625 2.7109375 C-3.87085981 3.1462105 -5.60982375 3.80869691 -7.75 5.125 C-8.91343227 7.45186453 -8.94895988 8.97221413 -9 11.5625 C-9.02578125 12.34496094 -9.0515625 13.12742188 -9.078125 13.93359375 C-8.89959202 16.15725258 -8.89959202 16.15725258 -7.62109375 17.8671875 C-4.96571546 19.6522226 -2.7329002 19.64204838 0.4375 19.8125 C1.52417969 19.87824219 2.61085938 19.94398438 3.73046875 20.01171875 C4.97763672 20.06779297 4.97763672 20.06779297 6.25 20.125 C6.25 20.785 6.25 21.445 6.25 22.125 C2.09046866 24.20476567 -3.26308469 23.5452152 -7.625 22.3125 C-11.11445036 20.36251303 -12.47675935 18.94472195 -13.75 15.125 C-14.31968464 8.06091048 -14.31968464 8.06091048 -12 4.25 C-8.10372848 0.57018801 -5.33601621 -0.12704801 0 0 Z " fill="#19C8C6" transform="translate(88.75,215.875)"/>
<path d="M0 0 C6.6 0 13.2 0 20 0 C20 0.99 20 1.98 20 3 C17.36 3 14.72 3 12 3 C12 9.6 12 16.2 12 23 C10.68 23 9.36 23 8 23 C8 16.4 8 9.8 8 3 C5.36 3 2.72 3 0 3 C0 2.01 0 1.02 0 0 Z " fill="#23CAC8" transform="translate(233,216)"/>
<path d="M0 0 C6.6 0 13.2 0 20 0 C20 0.99 20 1.98 20 3 C17.36 3 14.72 3 12 3 C12 9.6 12 16.2 12 23 C10.68 23 9.36 23 8 23 C8 16.4 8 9.8 8 3 C5.36 3 2.72 3 0 3 C0 2.01 0 1.02 0 0 Z " fill="#23CAC8" transform="translate(195,216)"/>
<path d="M0 0 C1.32 0 2.64 0 4 0 C4 6.6 4 13.2 4 20 C7.63 20 11.26 20 15 20 C15 20.99 15 21.98 15 23 C10.05 23 5.1 23 0 23 C0 15.41 0 7.82 0 0 Z " fill="#26CBC9" transform="translate(171,188)"/>
<path d="M0 0 C6.6 0 13.2 0 20 0 C20 0.66 20 1.32 20 2 C17.36 2 14.72 2 12 2 C12 8.93 12 15.86 12 23 C10.68 23 9.36 23 8 23 C8 16.07 8 9.14 8 2 C5.36 2 2.72 2 0 2 C0 1.34 0 0.68 0 0 Z " fill="#1AC8C6" transform="translate(61,188)"/>
<path d="M0 0 C11 0 11 0 15 3 C14.67 4.98 14.34 6.96 14 9 C13.01 9.33 12.02 9.66 11 10 C11 8 11 6 11 4 C8.36 3.34 5.72 2.68 3 2 C3 4.64 3 7.28 3 10 C4.65 10 6.3 10 8 10 C8 10.33 8 10.66 8 11 C6.35 11 4.7 11 3 11 C3 14.3 3 17.6 3 21 C4.65 21 6.3 21 8 21 C8 21.33 8 21.66 8 22 C5.36 22 2.72 22 0 22 C0 14.74 0 7.48 0 0 Z " fill="#0CC4C3" transform="translate(199,188)"/>
<path d="M0 0 C1.2065625 0.0309375 1.2065625 0.0309375 2.4375 0.0625 C3.7792678 3.32993656 5.10944359 6.60196908 6.4375 9.875 C6.8190625 10.80376953 7.200625 11.73253906 7.59375 12.68945312 C7.9546875 13.58212891 8.315625 14.47480469 8.6875 15.39453125 C9.02265625 16.21671143 9.3578125 17.0388916 9.703125 17.88598633 C10.4375 20.0625 10.4375 20.0625 10.4375 23.0625 C9.1175 23.0625 7.7975 23.0625 6.4375 23.0625 C5.7775 20.4225 5.1175 17.7825 4.4375 15.0625 C1.7975 15.0625 -0.8425 15.0625 -3.5625 15.0625 C-3.5625 14.7325 -3.5625 14.4025 -3.5625 14.0625 C-1.2525 14.0625 1.0575 14.0625 3.4375 14.0625 C3.2209375 13.51980469 3.004375 12.97710937 2.78125 12.41796875 C2.5028125 11.70253906 2.224375 10.98710937 1.9375 10.25 C1.6590625 9.54230469 1.380625 8.83460938 1.09375 8.10546875 C0.4375 6.0625 0.4375 6.0625 0.4375 3.0625 C-0.2225 3.0625 -0.8825 3.0625 -1.5625 3.0625 C-1.8925 4.0525 -2.2225 5.0425 -2.5625 6.0625 C-3.2225 6.0625 -3.8825 6.0625 -4.5625 6.0625 C-3.48963568 0.08511307 -3.48963568 0.08511307 0 0 Z " fill="#17C7C5" transform="translate(156.5625,187.9375)"/>
<path d="M0 0 C0.66 0.33 1.32 0.66 2 1 C2 1.66 2 2.32 2 3 C1.01 3.804375 1.01 3.804375 0 4.625 C-2.50964986 7.60520921 -2.5382739 9.30888807 -2.3125 13.09765625 C-1.84945187 15.91646172 -1.23918419 17.1942063 1 19 C4.60465748 19.81314911 4.60465748 19.81314911 8 20 C8 20.99 8 21.98 8 23 C3.84473143 23.33242149 1.44142764 23.22487823 -2.3125 21.3125 C-6.22965817 17.94192204 -6.79656333 15.59843097 -7.4375 10.5625 C-6.85313602 5.8041076 -5.35336237 4.35336237 -2 1 C-1.34 0.67 -0.68 0.34 0 0 Z " fill="#1AC8C6" transform="translate(99,188)"/>
<path d="M0 0 C3.96 0 7.92 0 12 0 C12 0.66 12 1.32 12 2 C9.03 2 6.06 2 3 2 C3 8.27 3 14.54 3 21 C5.31 21 7.62 21 10 21 C9.34 21.66 8.68 22.32 8 23 C5.36 23 2.72 23 0 23 C0 15.41 0 7.82 0 0 Z " fill="#16C7C5" transform="translate(162,216)"/>
<path d="M0 0 C5 7.5 5 7.5 5 11 C2.36 11.33 -0.28 11.66 -3 12 C-3.99 14.64 -4.98 17.28 -6 20 C-7.32 20 -8.64 20 -10 20 C-9.41849224 15.23163636 -8.21830405 11.27228927 -6 7 C-3.9375 5.875 -3.9375 5.875 -2 5 C-0.71745356 2.46229997 -0.71745356 2.46229997 0 0 Z " fill="#20C9C7" transform="translate(255,191)"/>
<path d="M0 0 C2.36010742 0.22485352 2.36010742 0.22485352 5 1 C6.30200195 2.91772461 6.30200195 2.91772461 7.23828125 5.40234375 C7.58310547 6.29244141 7.92792969 7.18253906 8.28320312 8.09960938 C8.62287109 9.03611328 8.96253906 9.97261719 9.3125 10.9375 C9.67150391 11.87013672 10.03050781 12.80277344 10.40039062 13.76367188 C13 20.61178571 13 20.61178571 13 23 C11.68 23 10.36 23 9 23 C8.34 20.36 7.68 17.72 7 15 C4.36 15 1.72 15 -1 15 C-1 14.67 -1 14.34 -1 14 C1.31 14 3.62 14 6 14 C5.505 12.9275 5.01 11.855 4.5 10.75 C3.11346089 7.74583192 3 6.54065105 3 3 C1.68 3.33 0.36 3.66 -1 4 C-0.67 2.68 -0.34 1.36 0 0 Z " fill="#11C6C4" transform="translate(222,216)"/>
<path d="M0 0 C1.32 0 2.64 0 4 0 C4 7.59 4 15.18 4 23 C2.68 23 1.36 23 0 23 C0 15.41 0 7.82 0 0 Z " fill="#26CBC9" transform="translate(84,188)"/>
<path d="M0 0 C1.65 0 3.3 0 5 0 C6.3417678 3.26743656 7.67194359 6.53946908 9 9.8125 C9.3815625 10.74126953 9.763125 11.67003906 10.15625 12.62695312 C10.5171875 13.51962891 10.878125 14.41230469 11.25 15.33203125 C11.58515625 16.15421143 11.9203125 16.9763916 12.265625 17.82348633 C13 20 13 20 13 23 C11.12011719 22.75219727 11.12011719 22.75219727 9 22 C7.90332031 20.23413086 7.90332031 20.23413086 7.078125 17.96484375 C6.77519531 17.15595703 6.47226562 16.34707031 6.16015625 15.51367188 C5.85980469 14.66353516 5.55945312 13.81339844 5.25 12.9375 C4.93417969 12.08349609 4.61835937 11.22949219 4.29296875 10.34960938 C3.51432809 8.23784151 2.75083703 6.12177934 2 4 C1.01 4 0.02 4 -1 4 C-0.67 2.68 -0.34 1.36 0 0 Z " fill="#17C7C5" transform="translate(50,188)"/>
<path d="M0 0 C7.23186925 -0.49029622 7.23186925 -0.49029622 10.9375 1.875 C14.4851622 5.53016712 14.38794564 8.51687634 14.359375 13.4453125 C13.77953442 17.56722274 12.04596207 19.24412956 9 22 C8.34 22 7.68 22 7 22 C7.61277612 19.03824877 8.25372522 17.61941217 10 15 C10.60040738 9.45323793 10.60040738 9.45323793 8.4375 4.5625 C5.31896306 2.56343786 2.65813817 2.28139524 -1 2 C-0.67 1.34 -0.34 0.68 0 0 Z " fill="#09C4C2" transform="translate(228,188)"/>
<path d="M0 0 C3.63 0 7.26 0 11 0 C10.67 0.66 10.34 1.32 10 2 C7.69 2 5.38 2 3 2 C3 4.97 3 7.94 3 11 C3.99 11.33 4.98 11.66 6 12 C5.01 12 4.02 12 3 12 C3 15.63 3 19.26 3 23 C2.01 23 1.02 23 0 23 C0 15.41 0 7.82 0 0 Z " fill="#06C3C1" transform="translate(122,216)"/>
<path d="M0 0 C6.625 -0.25 6.625 -0.25 10 2 C9.6875 4.375 9.6875 4.375 9 7 C5.5647952 9.29013653 4.014669 9.17842973 0 9 C0 6.03 0 3.06 0 0 Z " fill="#E4F8F8" transform="translate(274,190)"/>
<path d="M0 0 C2.64 0 5.28 0 8 0 C5 2 5 2 3 2 C3 4.97 3 7.94 3 11 C4.65 11 6.3 11 8 11 C8 11.33 8 11.66 8 12 C6.35 12 4.7 12 3 12 C3 15.3 3 18.6 3 22 C2.01 22 1.02 22 0 22 C0 14.74 0 7.48 0 0 Z " fill="#00C2C0" transform="translate(271,188)"/>
<path d="M0 0 C2.3125 1.625 2.3125 1.625 4 4 C4.61195145 7.6717087 4.48706506 9.28813568 2.375 12.375 C-0.71186432 14.48706506 -2.3282913 14.61195145 -6 14 C-9.08884321 11.88658096 -9.87108765 10.68753254 -10.5625 7 C-10 4 -10 4 -7.8125 1.625 C-4.75367423 -0.14232156 -3.44653179 -0.70698088 0 0 Z M-6 2 C-8.35014158 4.837578 -8.35014158 4.837578 -7.6875 8.125 C-7.29355679 10.88086422 -7.29355679 10.88086422 -6 12 C-3.04182893 12.25005386 -3.04182893 12.25005386 0 12 C0.66 11.34 1.32 10.68 2 10 C1.90304884 5.65805064 1.90304884 5.65805064 0 2 C-2.95804573 1.66659529 -2.95804573 1.66659529 -6 2 Z " fill="#20C9C8" transform="translate(25,225)"/>
<path d="M0 0 C3.375 -0.125 3.375 -0.125 7 0 C9 2 9 2 9.3125 4.5 C9.1578125 5.7375 9.1578125 5.7375 9 7 C5.5647952 9.29013653 4.014669 9.17842973 0 9 C0 6.03 0 3.06 0 0 Z " fill="#EFFBFB" transform="translate(125,218)"/>
<path d="M0 0 C0.99 0 1.98 0 3 0 C3 7.59 3 15.18 3 23 C2.01 23 1.02 23 0 23 C0 15.41 0 7.82 0 0 Z " fill="#01C2C0" transform="translate(256,216)"/>
<path d="M0 0 C0.99 0 1.98 0 3 0 C3 7.59 3 15.18 3 23 C2.01 23 1.02 23 0 23 C0 15.41 0 7.82 0 0 Z " fill="#02C2C0" transform="translate(189,216)"/>
<path d="M0 0 C3.375 -0.125 3.375 -0.125 7 0 C9 2 9 2 9.125 4.625 C9.08375 5.40875 9.0425 6.1925 9 7 C6.04335481 8.4783226 3.25770263 8.06032783 0 8 C0 5.36 0 2.72 0 0 Z " fill="#FCFEFE" transform="translate(202,200)"/>
<path d="M0 0 C5.625 -0.25 5.625 -0.25 9 2 C8.125 5.875 8.125 5.875 7 7 C4.66702567 7.04092937 2.33294775 7.04241723 0 7 C0 4.69 0 2.38 0 0 Z " fill="#F5FCFC" transform="translate(202,190)"/>
<path d="M0 0 C2.64 0 5.28 0 8 0 C8 0.66 8 1.32 8 2 C6.02 2 4.04 2 2 2 C2 3.32 2 4.64 2 6 C3.98 6 5.96 6 8 6 C8 6.66 8 7.32 8 8 C6.02 8 4.04 8 2 8 C2 9.98 2 11.96 2 14 C1.34 14 0.68 14 0 14 C0 9.38 0 4.76 0 0 Z " fill="#36CFCD" transform="translate(32,225)"/>
<path d="M0 0 C0.33 1.32 0.66 2.64 1 4 C3.31 4 5.62 4 8 4 C8 4.33 8 4.66 8 5 C5.36 5 2.72 5 0 5 C-0.66 7.31 -1.32 9.62 -2 12 C-3.32 12.33 -4.64 12.66 -6 13 C-5.57476184 11.39253944 -5.13429874 9.78910164 -4.6875 8.1875 C-4.44386719 7.29417969 -4.20023438 6.40085938 -3.94921875 5.48046875 C-2.9799181 2.94752262 -2.04990396 1.7283504 0 0 Z " fill="#0EC5C3" transform="translate(57,226)"/>
<path d="M0 0 C0.66 0 1.32 0 2 0 C2.99 3.3 3.98 6.6 5 10 C2.36 10 -0.28 10 -3 10 C-2.01 6.7 -1.02 3.4 0 0 Z " fill="#E6F9F8" transform="translate(155,191)"/>
<path d="M0 0 C2.18975773 3.28463659 2.99806563 6.20696275 4 10 C1.69 10 -0.62 10 -3 10 C-2.69201674 8.51988629 -2.378482 7.04092675 -2.0625 5.5625 C-1.88847656 4.73878906 -1.71445312 3.91507813 -1.53515625 3.06640625 C-1 1 -1 1 0 0 Z " fill="#EAFAF9" transform="translate(52,191)"/>
<path d="M0 0 C0.66 0.33 1.32 0.66 2 1 C2.6328125 3.06640625 2.6328125 3.06640625 3.125 5.5625 C3.29257813 6.38878906 3.46015625 7.21507812 3.6328125 8.06640625 C3.75398438 8.70449219 3.87515625 9.34257812 4 10 C1.69 10 -0.62 10 -3 10 C-2.01 6.7 -1.02 3.4 0 0 Z " fill="#E7F9F9" transform="translate(61,219)"/>
<path d="M0 0 C0.66 0 1.32 0 2 0 C2.99 2.97 3.98 5.94 5 9 C2.36 9 -0.28 9 -3 9 C-2.01 6.03 -1.02 3.06 0 0 Z " fill="#E9F9F9" transform="translate(223,220)"/>
<path d="M0 0 C4 6 4 6 4 10 C1.69 10 -0.62 10 -3 10 C-2.01 6.7 -1.02 3.4 0 0 Z " fill="#EFFBFB" transform="translate(255,191)"/>
<path d="M0 0 C0.66 0 1.32 0 2 0 C2.33 0.66 2.66 1.32 3 2 C5.97 2 8.94 2 12 2 C9 5 9 5 6 5.3125 C3 5 3 5 0 3 C0 2.01 0 1.02 0 0 Z " fill="#34CECC" transform="translate(16,234)"/>
<path d="M0 0 C0 0.66 0 1.32 0 2 C-3.21451269 3.60725635 -6.43612536 3.05748185 -10 3 C-10 2.34 -10 1.68 -10 1 C-3.375 0 -3.375 0 0 0 Z " fill="#0BC4C2" transform="translate(117,236)"/>
<path d="M0 0 C2.64 0 5.28 0 8 0 C7.67 1.32 7.34 2.64 7 4 C4.69 3.67 2.38 3.34 0 3 C0 2.01 0 1.02 0 0 Z " fill="#2FCDCB" transform="translate(202,197)"/>
</svg>
