<svg width="27" height="29" viewBox="0 0 27 29" fill="none" xmlns="http://www.w3.org/2000/svg">
<path d="M11.8045 28.2911C11.1679 28.2911 10.62 28.0789 10.1608 27.6546C9.7015 27.2302 9.42425 26.7115 9.329 26.0986L9.01073 23.7645C8.70424 23.6467 8.41567 23.5052 8.14502 23.3402C7.87436 23.1752 7.6089 22.9983 7.34862 22.8097L5.15606 23.7292C4.56666 23.9885 3.97726 24.0121 3.38786 23.7999C2.79846 23.5877 2.33873 23.2105 2.00867 22.6683L0.346566 19.7684C0.0165029 19.2262 -0.0778006 18.6486 0.0636551 18.0356C0.205111 17.4226 0.523386 16.9157 1.01848 16.5149L2.89277 15.1004C2.86919 14.9354 2.8574 14.776 2.8574 14.6223V13.6674C2.8574 13.5147 2.86919 13.3558 2.89277 13.1907L1.01848 11.7762C0.523386 11.3754 0.205111 10.8685 0.0636551 10.2555C-0.0778006 9.64256 0.0165029 9.06495 0.346566 8.5227L2.00867 5.62286C2.33873 5.08062 2.79846 4.7034 3.38786 4.49122C3.97726 4.27903 4.56666 4.30261 5.15606 4.56194L7.34862 5.48141C7.60796 5.2928 7.87908 5.11598 8.16199 4.95095C8.4449 4.78592 8.72781 4.64446 9.01073 4.52658L9.329 2.19256C9.4233 1.57959 9.70056 1.06092 10.1608 0.636551C10.621 0.212184 11.1689 0 11.8045 0H15.1287C15.7652 0 16.3136 0.212184 16.7738 0.636551C17.234 1.06092 17.5108 1.57959 17.6042 2.19256L17.9224 4.52658C18.2289 4.64446 18.518 4.78592 18.7896 4.95095C19.0611 5.11598 19.3261 5.2928 19.5845 5.48141L21.7771 4.56194C22.3665 4.30261 22.9559 4.27903 23.5453 4.49122C24.1347 4.7034 24.5944 5.08062 24.9245 5.62286L26.5866 8.5227C26.9167 9.06495 27.011 9.64256 26.8695 10.2555C26.728 10.8685 26.4098 11.3754 25.9147 11.7762L24.0404 13.1907C24.064 13.3558 24.0758 13.5151 24.0758 13.6689V14.6223C24.0758 14.776 24.0522 14.9354 24.005 15.1004L25.8793 16.5149C26.3744 16.9157 26.6927 17.4226 26.8341 18.0356C26.9756 18.6486 26.8813 19.2262 26.5512 19.7684L24.8538 22.6683C24.5237 23.2105 24.064 23.5877 23.4746 23.7999C22.8852 24.0121 22.2958 23.9885 21.7064 23.7292L19.5845 22.8097C19.3252 22.9983 19.0541 23.1752 18.7712 23.3402C18.4883 23.5052 18.2053 23.6467 17.9224 23.7645L17.6042 26.0986C17.5099 26.7115 17.2331 27.2302 16.7738 27.6546C16.3146 28.0789 15.7662 28.2911 15.1287 28.2911H11.8045ZM13.5373 19.0965C14.9047 19.0965 16.0717 18.6132 17.0383 17.6466C18.0049 16.68 18.4883 15.513 18.4883 14.1456C18.4883 12.7782 18.0049 11.6112 17.0383 10.6445C16.0717 9.67792 14.9047 9.19462 13.5373 9.19462C12.1463 9.19462 10.9732 9.67792 10.0179 10.6445C9.06259 11.6112 8.58542 12.7782 8.58636 14.1456C8.5873 15.513 9.06495 16.68 10.0193 17.6466C10.9737 18.6132 12.1463 19.0965 13.5373 19.0965Z" fill="white"/>
</svg>
